<?xml version="1.0" encoding="UTF-8"?>
<svg id="_圖層_2" data-name="圖層 2" xmlns="http://www.w3.org/2000/svg" viewBox="0 0 506.23 276.81">
  <defs>
    <style>
      .cls-1 {
        letter-spacing: -.03em;
      }

      .cls-2 {
        fill: #000;
        font-family: ArialRoundedMTBold, 'Arial Rounded MT Bold';
        font-size: 38px;
      }

      .cls-3 {
        letter-spacing: -.02em;
      }

      .cls-4 {
        fill: #fff;
      }

      .cls-4, .cls-5, .cls-6 {
        stroke-width: 0px;
      }

      .cls-5 {
        fill: #2b1622;
      }

      .cls-6 {
        fill: #fcfcfc;
      }
    </style>
  </defs>
  <g id="_圖層_1-2" data-name="圖層 1">
    <g>
      <path class="cls-6" d="M273.42.34C160.98-3.56,40.44,25.86,7.48,90.53c-20.94,41.08,2.99,84.47,60.63,112.27,55.38,26.71,130.85,35.69,202.34,33.74,10.7-.29,36.2-2.94,37.94-2.5,4.07,1.03,17.22,27.73,54.3,38.74,36.37,10.8,68.78-2.79,55.79-10.41-3.67-2.16-39.86-5.03-20.46-32.7,11.39-16.24,28.15-19.08,47.98-29.37,99.35-51.55,71.17-142.62-50.58-179.97C362.2,10.15,311.09,1.65,273.42.34Z"/>
      <path class="cls-5" d="M260.03,10.76c-71.28-1.57-148.82,12.49-196.76,43.12C-3.23,96.36,5.17,158.45,82.24,194.89c50.67,23.96,120.12,33,185.23,31.24,20.51-.55,47.48-4.23,49.84-3.75,6.12,1.25,27.44,46.63,90.01,47.07-40.87-7.81-35.68-28.7-22.69-47.28,14.13-20.21,16.5-15.27,42.03-26.87,98.04-44.56,78.96-135.93-59.51-170.39-31.25-7.78-72.99-13.41-107.12-14.16Z"/>
      <path class="cls-4" d="M354.87,35.88c123.55,30.74,140.58,112.27,53.1,152.03-22.78,10.35-24.89,5.94-37.5,23.98-.12.17-.22.34-.35.5-16.3,19.67-32.7,18.04-36.81-2.31-.15-.76-22.4,2.1-22.9,2-2.11-.43-26.17,2.85-44.47,3.35-58.1,1.57-120.06-6.5-165.27-27.88C31.9,155.02,24.39,99.62,83.73,61.71c42.78-27.33,111.96-39.87,175.56-38.47,30.45.67,67.69,5.7,95.58,12.64Z"/>
    </g>
    <text class="cls-2" transform="translate(114.23 109.87)"><tspan x="0" y="0">H</tspan><tspan class="cls-1" x="28.87" y="0">e</tspan><tspan x="50.47" y="0">y! </tspan><tspan class="cls-3" x="93.22" y="0">W</tspan><tspan x="127.92" y="0">anna be </tspan><tspan x="0" y="45.6">friends?</tspan></text>
  </g>
</svg>