<?xml version="1.0" encoding="UTF-8"?>
<svg id="_圖層_2" data-name="圖層 2" xmlns="http://www.w3.org/2000/svg" viewBox="0 0 458.72 378.13">
  <defs>
    <style>
      .cls-1 {
        fill: #1d1719;
      }

      .cls-1, .cls-2, .cls-3, .cls-4, .cls-5, .cls-6 {
        stroke-width: 0px;
      }

      .cls-7 {
        fill: #000;
        font-family: ArialRoundedMTBold, 'Arial Rounded MT Bold';
        font-size: 36px;
      }

      .cls-2 {
        fill: #016066;
      }

      .cls-3 {
        fill: #fafaf9;
      }

      .cls-4 {
        fill: #132a2e;
      }

      .cls-8 {
        letter-spacing: -.04em;
      }

      .cls-5 {
        fill: #fff;
      }

      .cls-6 {
        fill: #1d2424;
      }
    </style>
  </defs>
  <g id="_圖層_1-2" data-name="圖層 1">
    <g>
      <path class="cls-5" d="M397.92,213.38c3.09,21.3-35.15,14.55-43.25,15.25-18.56,1.6-35.24,30.85-41,46.5-20.6-28.63-55.12-32.09-76-1.5-20.52-29.6-51.19-27.69-72,.5-5.75-14.38-34.83-31.62-48.5-22-5.57,3.92-38.72,56.23-46,66.5,2.07-20.86,9.79-56.34,11.25-74.75,2.56-32.48-20.43-21.34-43-34.25-10.44-5.97-15.68-14.92-12.5-27,5.41-20.6,29.18-36.24,32-39.75,12.56-15.63-2.57-36.4-4.5-50.5-.24-1.7-.79-2.66.25-3.25,12,1.16,41.62,5.61,51,4.5,11.86-1.4,18.55-9.59,22.25-20.25,2.7-7.81,4.02-24.71,8.75-24.75,45.41,27.77,54.68,36.53,85.5-13.5h3c26.61,27.95,31.25,45.54,73,27,6.58-2.92,26.7-16.99,32.5-13,4.53,3.12,6.41,34.61,20,45.5,8.9,7.14,37.69,15.33,49.75,21.75-4.93,16.94-21.74,34.36-20.5,52.25.07,1.07.71,4.38,1,5.5,1.39,5.43,16.3,34.47,17,39.25Z"/>
      <path class="cls-1" d="M418.92,221.13c-2.02,40.62-52.32,29.13-60.75,31-3.4.75-17.6,14.73-20.25,18.25-8.11,10.74-18.45,36.51-19.5,49.75-.83,10.28.61,25.25,0,36.25q-.88.13-1.75.25c-1.15-10.82.68-27.4-.25-37-2.4-24.53-31.77-58.36-58.75-40-10.67,7.26-18.34,24.57-19.25,37-.78,10.53.57,24.27,0,35.25q-.88.13-1.75.25c-1.15-10.72.67-26.91-.25-36.5-1.16-11.95-9.87-29.42-19.75-36.5-23.81-17.04-49.1,14.59-51.25,39-.97,11,.72,31.15,0,43.75l-2-.5c-.88-2.09.58-38.39,0-45.25-1.57-18.31-14.09-42.02-35.25-41-21.01,25.63-40.4,52.87-60.25,79.5-1.86,2.12-3.05,3.91-4,5-5.2,5.96-9.65,12.48-14.75,18.5.13-9.57,1.78-19.01,2.75-28.5,1.32-13.06,9.86-88.34,9.5-93,2.5-5.26-2.89-15.42-7.75-18-3.74-1.98-10.36-1.42-14.5-2.5-22.19-5.8-35.89-23.48-34.25-46.5,1.36-.53,1.51-2.45,2-3.5,6.02-.61,12-2.23,18-1.5-1.75,9.97,4.76,22.92,14.5,25,22.57,12.91,45.56,1.77,43,34.25-1.46,18.41-9.18,53.89-11.25,74.75,7.28-10.27,40.43-62.58,46-66.5,13.67-9.62,42.75,7.62,48.5,22,20.81-28.19,51.48-30.1,72-.5,20.88-30.59,55.4-27.13,76,1.5,5.76-15.65,22.44-44.9,41-46.5,8.1-.7,46.34,6.05,43.25-15.25-.7-4.78-15.61-33.82-17-39.25-.29-1.12-.93-4.43-1-5.5,1.49-.37.97,3.52,2.25,6q5.87-1.5,11.75-3c6.21,12.65,19.52,28.95,23,41.75,1.01,3.73.62,8.23,2,7.75Z"/>
      <path class="cls-3" d="M318.42,320.13c1.06-13.24,11.4-39.01,19.5-49.75,2.66-3.52,16.86-17.5,20.25-18.25,8.44-1.87,58.73,9.62,60.75-31,1.06-21.24-15.33-43.5-16.5-48.25-4.03-16.31,12.57-49.36,23.5-62.5-12.62-7.59-59.55-25.8-66.5-35-5.53-7.32-17.3-41.51-21.75-52.75-17.12,8.01-57.03,33.3-75,24.5-6.94-3.4-33.62-33.17-41-41-8.76,9.35-25.55,42.59-38,44-13.25,1.5-44.95-21.05-58-27.5-6.02,13.62-9.24,48.86-27,51.5-10.23,1.52-53.63-1.4-69-1,3.36,13.02,19.56,45.02,12.75,56.75-4.87,8.4-35.19,27.29-37.5,59.75-1.64,23.02,12.07,40.7,34.25,46.5,4.14,1.08,10.76.52,14.5,2.5,4.86,2.58,10.26,12.74,7.75,18-.29-3.76-4.34-10.12-7.75-12-4.83-2.67-18.18-1.89-31-9.5C1.97,222.84-3.91,197.52,2.42,175.38c6.71-23.49,36.6-45.89,37.5-50.5.58-2.96-3.35-16.6-4.5-20.5-3.24-11.01-12.6-31.24-12.5-33,.03-.57,2.62-4.06,3.25-4.25,5.35-1.62,59.09,2.72,73,.5,9.83-1.57,14.87-23.41,17.75-32.25,1.02-3.12,3.82-18.06,6.25-18.75,2.59-.73,40.81,22.21,47.5,25,4.13,1.72,9.54,4.68,14,3.5,7.79-2.05,24.94-33.39,31.25-40.75,1.67-1.95,3.74-5.05,6.75-4.25,3.1.82,37.56,42.26,46.5,44,18.24,3.56,66.25-28.08,70-27.5.93.65,2.11,1.27,2.75,2.25,1.67,2.54,14.69,48.01,23.75,55.75,5.18,4.43,55.16,26.91,66.5,32.5,2.94,2.72-7.61,13.49-12.25,21.25-6.18,10.34-16.26,32.35-12.5,44,1,3.11,13.49,22.25,15.5,37.5,1.99,15.05-1.29,31.41-14.25,40.75-20.64,14.88-43.67,4.11-53.5,9-.89.45-10.83,10.09-12.25,11.75-7.5,8.73-14.04,20.71-18,31.5-2.57,6.99-3.31,17.24-6.5,17.25Z"/>
      <path class="cls-3" d="M163.42,316.13c-3.46-2.73-3.99-10-6-14.25-5.48-11.55-15.5-22.28-29.25-21.75-18.89,24.42-37.01,49.43-57.25,72.75-.17.2-1.7.26-3,1.75,19.85-26.63,39.24-53.87,60.25-79.5,21.17-1.02,33.69,22.69,35.25,41Z"/>
      <path class="cls-3" d="M316.42,319.63c-3.43-.14-4.31-8.35-6-11.75-13.51-27.22-48.92-44.9-67-3-1.92,4.45-2.56,11.82-5,11.75.91-12.43,8.58-29.74,19.25-37,26.98-18.36,56.36,15.47,58.75,40Z"/>
      <path class="cls-3" d="M236.42,315.63c-3.17.17-4.01-8.45-5.5-11.75-15.35-34.04-44.37-30.75-59.5,1.5-1.77,3.77-2.54,11.1-6,12.75,2.15-24.41,27.45-56.04,51.25-39,9.88,7.08,18.6,24.55,19.75,36.5Z"/>
      <path class="cls-2" d="M418.92,221.13c-1.37.48-.99-4.02-2-7.75-3.47-12.8-16.79-29.1-23-41.75-3.65-7.42-6.22-11.2-4.5-20.25,1.39-7.34,14.74-28.59,18-37.5-12.79-6.37-48.43-16.18-56.5-25.5-6.93-8-13.06-38.46-18.25-49.75-20.09,7.94-49.7,33.17-72,25-9.6-3.52-29.51-31.68-37.5-40.5-8.29,10.4-20.02,37.98-32.5,42-19.63,6.32-42.82-18.46-59.5-26.5-6.43,16.71-4.35,48.73-28,51.5-7.61.89-46.38-4.91-58-6.5,3.03,13.58,19.47,42.49,11.75,54.75-1.71,2.71-22.97,18.49-28,22.75-10.3,8.72-15.94,11.96-22,25-.49,1.05-.63,2.97-2,3.5,2.31-32.46,32.63-51.35,37.5-59.75,6.81-11.73-9.39-43.73-12.75-56.75,15.37-.4,58.77,2.52,69,1,17.76-2.64,20.98-37.88,27-51.5,13.05,6.45,44.75,29,58,27.5,12.45-1.41,29.24-34.65,38-44,7.38,7.83,34.06,37.6,41,41,17.97,8.8,57.88-16.49,75-24.5,4.45,11.24,16.22,45.43,21.75,52.75,6.95,9.2,53.88,27.41,66.5,35-10.93,13.14-27.53,46.19-23.5,62.5,1.17,4.75,17.56,27.01,16.5,48.25Z"/>
      <path class="cls-4" d="M393.92,171.63q-5.88,1.5-11.75,3c-1.28-2.48-.76-6.37-2.25-6-1.24-17.89,15.57-35.31,20.5-52.25-12.06-6.42-40.85-14.61-49.75-21.75-13.59-10.89-15.47-42.38-20-45.5-5.8-3.99-25.92,10.08-32.5,13-41.75,18.54-46.39.95-73-27h-3c-30.82,50.03-40.09,41.27-85.5,13.5-4.73.04-6.05,16.94-8.75,24.75-3.7,10.66-10.39,18.85-22.25,20.25-9.38,1.11-39-3.34-51-4.5-1.04.59-.49,1.55-.25,3.25,1.93,14.1,17.06,34.87,4.5,50.5-2.82,3.51-26.59,19.15-32,39.75-3.18,12.08,2.06,21.03,12.5,27-9.74-2.08-16.25-15.03-14.5-25,.95-5.43,10.24-18.66,10.5-19.75.06-.27-1.68-3.09-.25-4.25q-3.13.25-6.25.5c5.03-4.26,26.29-20.04,28-22.75,7.72-12.26-8.73-41.17-11.75-54.75,11.61,1.59,50.39,7.39,58,6.5,23.65-2.77,21.57-34.79,28-51.5,16.68,8.04,39.86,32.82,59.5,26.5,12.47-4.02,24.2-31.6,32.5-42,7.98,8.82,27.9,36.98,37.5,40.5,22.3,8.17,51.91-17.06,72-25,5.19,11.29,11.32,41.75,18.25,49.75,8.07,9.32,43.71,19.13,56.5,25.5-3.26,8.91-16.61,30.16-18,37.5-1.72,9.05.85,12.83,4.5,20.25Z"/>
      <path class="cls-6" d="M24.92,184.63c-6-.73-11.98.89-18,1.5,6.06-13.04,11.7-16.28,22-25l6.25-.5c-1.43,1.16.31,3.98.25,4.25-.25,1.09-9.55,14.32-10.5,19.75Z"/>
    </g>
    <text class="cls-7" transform="translate(73.9 178.14)"><tspan x="0" y="0">I AM HANG</tspan><tspan class="cls-8" x="194.26" y="0">R</tspan><tspan x="218.78" y="0">YY!!</tspan></text>
  </g>
</svg>