<?xml version="1.0" encoding="UTF-8"?>
<svg id="_圖層_2" data-name="圖層 2" xmlns="http://www.w3.org/2000/svg" viewBox="0 0 550.72 378.13">
  <defs>
    <style>
      .cls-1 {
        letter-spacing: -.09em;
      }

      .cls-2 {
        fill: #1d1719;
      }

      .cls-2, .cls-3, .cls-4, .cls-5 {
        stroke-width: 0px;
      }

      .cls-6 {
        fill: #000;
        font-family: ArialRoundedMTBold, 'Arial Rounded MT Bold';
        font-size: 36px;
      }

      .cls-3 {
        fill: #016066;
      }

      .cls-4 {
        fill: #fafaf9;
      }

      .cls-5 {
        fill: #fff;
      }
    </style>
  </defs>
  <g id="_圖層_1-2" data-name="圖層 1">
    <g>
      <path class="cls-5" d="M506.48,213.38c3.94,21.3-44.74,14.55-55.05,15.25-23.62,1.6-44.85,30.85-52.19,46.5-26.22-28.63-70.15-32.09-96.73-1.5-26.11-29.6-65.16-27.69-91.65.5-7.31-14.38-44.33-31.62-61.73-22-7.09,3.92-49.27,56.23-58.55,66.5,2.64-20.86,12.47-56.34,14.32-74.75,3.27-32.48-25.99-21.34-54.73-34.25-13.28-5.97-19.95-14.92-15.91-27,6.89-20.6,37.14-36.24,40.73-39.75,15.99-15.63-3.26-36.4-5.73-50.5-.3-1.7-1-2.66.32-3.25,15.28,1.16,52.99,5.61,64.91,4.5,15.1-1.4,23.61-9.59,28.32-20.25,3.45-7.81,5.12-24.71,11.14-24.75,57.81,27.77,69.6,36.53,108.83-13.5h3.82c33.87,27.95,39.78,45.54,92.91,27,8.38-2.92,33.99-16.99,41.37-13,5.77,3.12,8.17,34.61,25.46,45.5,11.33,7.14,47.98,15.33,63.32,21.75-6.27,16.94-27.67,34.36-26.09,52.25.09,1.07.9,4.38,1.27,5.5,1.78,5.43,20.75,34.47,21.64,39.25Z"/>
      <path class="cls-4" d="M405.29,320.13c1.35-13.24,14.51-39.01,24.82-49.75,3.38-3.52,21.46-17.5,25.77-18.25,10.74-1.87,74.75,9.62,77.32-31,1.34-21.24-19.51-43.5-21-48.25-5.13-16.31,16-49.36,29.91-62.5-16.06-7.59-75.8-25.8-84.64-35-7.04-7.32-22.02-41.51-27.68-52.75-21.79,8.01-72.59,33.3-95.46,24.5-8.84-3.4-42.79-33.17-52.19-41-11.15,9.35-32.52,42.59-48.37,44-16.87,1.5-57.21-21.05-73.82-27.5-7.67,13.62-11.77,48.86-34.37,51.5-13.02,1.52-68.26-1.4-87.83-1,4.28,13.02,24.9,45.02,16.23,56.75-6.2,8.4-44.79,27.29-47.73,59.75-2.08,23.02,15.36,40.7,43.59,46.5,5.27,1.08,13.7.52,18.46,2.5,6.19,2.58,13.05,12.74,9.86,18-.37-3.76-5.53-10.12-9.86-12-6.15-2.67-23.14-1.89-39.46-9.5C2.51,222.84-4.98,197.52,3.07,175.38c8.55-23.49,46.59-45.89,47.73-50.5.73-2.96-4.27-16.6-5.73-20.5-4.13-11.01-16.04-31.24-15.91-33,.04-.57,3.33-4.06,4.14-4.25,6.81-1.62,75.21,2.72,92.92.5,12.51-1.57,18.93-23.41,22.59-32.25,1.29-3.12,4.86-18.06,7.96-18.75,3.29-.73,51.94,22.21,60.46,25,5.25,1.72,12.14,4.68,17.82,3.5,9.92-2.05,31.74-33.39,39.78-40.75,2.13-1.95,4.76-5.05,8.59-4.25,3.95.82,47.8,42.26,59.19,44,23.21,3.56,84.32-28.08,89.1-27.5,1.18.65,2.68,1.27,3.5,2.25,2.13,2.54,18.7,48.01,30.23,55.75,6.6,4.43,70.21,26.91,84.64,32.5,3.74,2.72-9.69,13.49-15.59,21.25-7.87,10.34-20.69,32.35-15.91,44,1.28,3.11,17.17,22.25,19.73,37.5,2.53,15.05-1.64,31.41-18.14,40.75-26.27,14.88-55.58,4.11-68.1,9-1.14.45-13.78,10.09-15.59,11.75-9.55,8.73-17.86,20.71-22.91,31.5-3.27,6.99-4.22,17.24-8.27,17.25Z"/>
      <path class="cls-4" d="M208,316.13c-4.4-2.73-5.07-10-7.64-14.25-6.97-11.55-19.73-22.28-37.23-21.75-24.04,24.42-47.1,49.43-72.87,72.75-.22.2-2.16.26-3.82,1.75,25.27-26.63,49.95-53.87,76.69-79.5,26.94-1.02,42.88,22.69,44.87,41Z"/>
      <path class="cls-4" d="M402.74,319.63c-4.36-.14-5.49-8.35-7.64-11.75-17.2-27.22-62.27-44.9-85.28-3-2.44,4.45-3.26,11.82-6.36,11.75,1.16-12.43,10.93-29.74,24.5-37,34.34-18.36,71.74,15.47,74.78,40Z"/>
      <path class="cls-4" d="M300.92,315.63c-4.04.17-5.1-8.45-7-11.75-19.54-34.04-56.48-30.75-75.73,1.5-2.25,3.77-3.23,11.1-7.64,12.75,2.74-24.41,34.94-56.04,65.23-39,12.58,7.08,23.67,24.55,25.14,36.5Z"/>
      <path class="cls-3" d="M533.21,221.13c-1.74.48-1.26-4.02-2.55-7.75-4.42-12.8-21.37-29.1-29.28-41.75-4.64-7.42-7.91-11.2-5.73-20.25,1.78-7.34,18.76-28.59,22.91-37.5-16.28-6.37-61.64-16.18-71.91-25.5-8.82-8-16.62-38.46-23.23-49.75-25.57,7.94-63.26,33.17-91.64,25-12.22-3.52-37.56-31.68-47.73-40.5-10.56,10.4-25.48,37.98-41.37,42-24.99,6.32-54.5-18.46-75.73-26.5-8.18,16.71-5.53,48.73-35.64,51.5-9.68.89-59.04-4.91-73.82-6.5,3.85,13.58,24.79,42.49,14.96,54.75-2.17,2.71-29.24,18.49-35.64,22.75-13.11,8.72-20.29,11.96-28,25-.62,1.05-.81,2.97-2.55,3.5,2.94-32.46,41.53-51.35,47.73-59.75,8.67-11.73-11.95-43.73-16.23-56.75,19.57-.4,74.8,2.52,87.83,1,22.6-2.64,26.7-37.88,34.37-51.5,16.61,6.45,56.96,29,73.82,27.5,15.85-1.41,37.21-34.65,48.37-44,9.4,7.83,43.35,37.6,52.19,41,22.87,8.8,73.67-16.49,95.46-24.5,5.66,11.24,20.64,45.43,27.68,52.75,8.84,9.2,68.58,27.41,84.64,35-13.91,13.14-35.04,46.19-29.91,62.5,1.49,4.75,22.35,27.01,21,48.25Z"/>
      <path class="cls-2" d="M44.76,160.63l-7.96.5c-13.1,8.72-20.29,11.96-28,25,7.67-.61,15.28-2.23,22.91-1.5,1.22-5.43,13.04-18.66,13.37-19.75.08-.27-2.14-3.09-.32-4.25ZM495.66,151.38c1.77-7.34,18.76-28.59,22.91-37.5-16.28-6.37-61.64-16.18-71.92-25.5-8.81-8-16.62-38.46-23.22-49.75-25.57,7.94-63.26,33.17-91.65,25-12.22-3.52-37.56-31.68-47.73-40.5-10.55,10.4-25.48,37.98-41.37,42-24.98,6.32-54.5-18.46-75.73-26.5-8.18,16.71-5.53,48.73-35.64,51.5-9.68.89-59.03-4.91-73.82-6.5,3.85,13.58,24.78,42.49,14.95,54.75-2.17,2.71-29.23,18.49-35.64,22.75l7.96-.5c-1.82,1.16.4,3.98.32,4.25-.33,1.09-12.15,14.32-13.37,19.75-2.22,9.97,6.07,22.92,18.46,25-13.28-5.97-19.95-14.92-15.91-27,6.89-20.6,37.14-36.24,40.73-39.75,15.99-15.63-3.26-36.4-5.73-50.5-.3-1.7-1-2.66.32-3.25,15.28,1.16,52.99,5.61,64.91,4.5,15.1-1.4,23.61-9.59,28.32-20.25,3.45-7.81,5.12-24.71,11.14-24.75,57.81,27.77,69.6,36.53,108.83-13.5h3.82c33.87,27.95,39.78,45.54,92.91,27,8.38-2.92,33.99-16.99,41.37-13,5.77,3.12,8.17,34.61,25.46,45.5,11.33,7.14,47.98,15.33,63.32,21.75-6.27,16.94-27.67,34.36-26.09,52.25,1.9-.37,1.24,3.52,2.86,6q7.48-1.5,14.96-3c-4.64-7.42-7.92-11.2-5.73-20.25ZM530.66,213.38c-4.42-12.8-21.37-29.1-29.27-41.75q-7.48,1.5-14.96,3c-1.62-2.48-.96-6.37-2.86-6,.09,1.07.9,4.38,1.27,5.5,1.78,5.43,20.75,34.47,21.64,39.25,3.94,21.3-44.74,14.55-55.05,15.25-23.62,1.6-44.85,30.85-52.19,46.5-26.22-28.63-70.15-32.09-96.73-1.5-26.11-29.6-65.16-27.69-91.65.5-7.31-14.38-44.33-31.62-61.73-22-7.09,3.92-49.27,56.23-58.55,66.5,2.64-20.86,12.47-56.34,14.32-74.75,3.27-32.48-25.99-21.34-54.73-34.25-12.39-2.08-20.68-15.03-18.46-25-7.63-.73-15.24.89-22.91,1.5-.62,1.05-.81,2.97-2.54,3.5-2.09,23.02,15.36,40.7,43.59,46.5,5.27,1.08,13.7.52,18.46,2.5,6.18,2.58,13.05,12.74,9.86,18,.46,4.66-10.4,79.94-12.09,93-1.23,9.49-3.34,18.93-3.5,28.5,6.5-6.02,12.16-12.54,18.77-18.5,1.22-1.09,2.74-2.88,5.09-5,25.27-26.63,49.95-53.87,76.69-79.5,26.94-1.02,42.88,22.69,44.87,41,.75,6.86-1.12,43.16,0,45.25q1.27.25,2.55.5c.92-12.6-1.24-32.75,0-43.75,2.74-24.41,34.93-56.04,65.23-39,12.58,7.08,23.67,24.55,25.14,36.5,1.17,9.59-1.14,25.78.31,36.5q1.12-.12,2.23-.25c.74-10.98-.98-24.72,0-35.25,1.16-12.43,10.93-29.74,24.5-37,34.35-18.36,71.74,15.47,74.78,40,1.19,9.6-1.14,26.18.32,37q1.11-.12,2.23-.25c.78-11-1.05-25.97,0-36.25,1.35-13.24,14.51-39.01,24.82-49.75,3.38-3.52,21.45-17.5,25.77-18.25,10.74-1.87,74.76,9.62,77.33-31-1.75.48-1.26-4.02-2.55-7.75Z"/>
    </g>
    <text class="cls-6" transform="translate(94.9 180.14)"><tspan x="0" y="0">WHO SHOULD I E</tspan><tspan class="cls-1" x="307.53" y="0">A</tspan><tspan x="330.26" y="0">T?</tspan></text>
  </g>
</svg>