<?xml version="1.0" encoding="UTF-8"?>
<svg id="_圖層_2" data-name="圖層 2" xmlns="http://www.w3.org/2000/svg" viewBox="0 0 441.56 452.03">
  <defs>
    <style>
      .cls-1 {
        fill: #261214;
      }

      .cls-1, .cls-2, .cls-3, .cls-4, .cls-5 {
        stroke-width: 0px;
      }

      .cls-6 {
        fill: #000;
        font-family: ArialRoundedMTBold, 'Arial Rounded MT Bold';
        font-size: 36px;
      }

      .cls-2 {
        fill: #00556b;
      }

      .cls-7 {
        letter-spacing: -.01em;
      }

      .cls-3 {
        fill: #9e8e91;
      }

      .cls-4 {
        fill: #f9f9fa;
      }

      .cls-8 {
        letter-spacing: -.02em;
      }

      .cls-9 {
        letter-spacing: -.04em;
      }

      .cls-5 {
        fill: #fff;
      }
    </style>
  </defs>
  <g id="_圖層_1-2" data-name="圖層 1">
    <g>
      <path class="cls-3" d="M87.8,444.27c5.44,3.55,11.37,5.77,17.92,4.7,16.29-2.65,48.57-57.96,57.59-72.87,29.21,16.77,75.1,17.86,105.77,4.7,8.09-3.47,14.95-9.36,15.87-9.4,1.99-.09,14.26,9.5,38.2,10.58,63.06,2.84,111.07-46.2,116.06-113.41l2.35.29c.42,74.48-68.07,132.21-141.91,112.53-2.52-.67-13.19-5.91-14.1-5.88-.75.03-10.21,6.44-12.93,7.64-33.26,14.7-75.55,13.79-108.12-2.35-13.48,17.57-48.49,95.83-76.69,63.46Z"/>
      <path class="cls-4" d="M439.2,268.56c-4.98,67.22-53,116.26-116.06,113.41-23.94-1.08-36.2-10.67-38.2-10.58-.92.04-7.78,5.93-15.87,9.4-30.67,13.16-76.56,12.06-105.77-4.7-9.02,14.91-41.3,70.22-57.59,72.87-6.56,1.07-12.48-1.15-17.92-4.7-19.96-22.91,4.2-51.81,13.52-74.04.35-.84,2.41-1.98,1.47-2.94-30.43-2.02-50.62-12.21-71.4-34.08C-1.49,289.38,1.81,239.18,3.18,186.59c.33-12.57,4.07-46.39,3.53-48.77-.27-1.18-11.69-8.72-4.11-21.74,6.65-11.45,18.63-5.68,19.39-6.46,1.54-1.59,1.64-18.65,14.1-41.72C56.13,30.77,94.14,8.5,135.1,2.36c9.87-1.48,15.09-.45,17.63-.59.2-.01,2.97-1.75,3.53-1.76,6.06-.17,6.69,1.17,7.05,1.18,27.95.34,57.07,6.51,79.33,5.88,17.71-.5,35.24-5.52,52.89-6.46,83.17-4.43,139.29,38.87,144.85,123.7.93,14.2-.04,128.92-1.18,144.26Z"/>
      <path class="cls-1" d="M297.88,10.59c77.55-3.45,128.46,34.65,133.1,114.3.48,8.31-.06,134.29-.59,142.21-4.11,62.28-53.78,112.61-116.65,103.72-18.32-2.59-27.2-12.93-28.79-12.93-.78,0-8.23,7.06-12.34,9.4-30.31,17.27-84.53,17.12-112.24-5.88-5.5,12.72-45.4,72.43-54.06,75.81-6.15,2.39-14.63-.45-16.75-7.35-5.9-19.24,28.7-63.31,32.32-84.03-23.87,22.76-64.35,2.42-82.86-18.8C-.61,281.57,17.85,220.1,13.17,166.02c-.02-.24-2.58-.96-1.76-4.11.13-.51,2.78-2.4,2.94-2.94.58-1.95-.45-11.83,0-15.87.1-.91,3.66-6.26,2.35-8.81-.16-.32-4.67-1.17-5.88-4.11-4.74-11.55,11.59-15.39,14.69-6.46,2.16,6.23-4.01,9.11-4.11,9.99-.04.3,2.03,2.16,1.18,5.88-.37,1.61-3.58,3.2-2.94,4.7,1.02,2.4,6.17-3.46,2.35,12.34,7.44,5.44,5.36-30.29,8.81-48.19C40.29,59.24,78.1,23.44,126.87,14.12c46.59-8.91,85.65,4.16,122.23,2.35,16.2-.8,32.52-5.15,48.77-5.88Z"/>
      <path class="cls-3" d="M101.31,370.22c-29.38-.51-52.58-13.9-69.93-37.02,20.78,21.87,40.97,32.06,71.4,34.08.94.95-1.12,2.09-1.47,2.94Z"/>
      <path class="cls-2" d="M294.64,335.55c-.32-2.74-2.59-7.76-4.7-9.4-10.62-8.25-13.45,4.53-23.21,12.34-24.84,19.89-76.77,22.27-100.78-.59-.23-1.52-.94-2.86-.59-4.7,19.31,7.92,25.73,14.44,55.53,11.17,38.22-4.2,51.78-24.06,55.83-25.86,14.77-6.57,13.37,15.49,37.61,18.22,32.21,3.62,70.5-16.69,89.32-42.9-4.89,11.24-14.26,23.68-23.51,31.73-21.68,18.9-62.25,32.59-85.5,9.99Z"/>
      <path class="cls-5" d="M289.94,326.15c-9.31-2.12-.42,12.33-20.86,25.27-23.38,14.8-71.62,16.7-95.2,1.76-8.72-5.53-6.46-5.69-7.93-15.28,24.01,22.86,75.94,20.48,100.78.59,9.76-7.81,12.59-20.59,23.21-12.34Z"/>
      <path class="cls-5" d="M148.32,356.71c-11.81,22.41-30.66,47.98-47.3,66.99l-2.06-2.06c.46-18.1,29.88-60.35,32.32-71.99q8.52,3.53,17.04,7.05Z"/>
      <path class="cls-4" d="M16.4,123.42c8.98-.73,2.7,11.7-2.06,3.23l2.06-3.23Z"/>
      <g>
        <path class="cls-5" d="M418.05,128.71c1.11,19.77,1.5,121.18,0,137.21-1.9,20.33-9.61,42.47-22.92,58.18-20.1,23.71-57.45,38.56-87.85,29.09-17.9-5.57-11.76-10.18-12.63-17.63,23.25,22.6,63.82,8.91,85.5-9.99,9.24-8.06,18.61-20.49,23.51-31.73-18.82,26.21-57.11,46.52-89.32,42.9-24.24-2.73-22.84-24.79-37.61-18.22-4.04,1.8-17.61,21.66-55.83,25.86-29.8,3.28-36.22-3.24-55.53-11.17-.36-.15-3.47-4.57-6.46-.29-.75,1.07-2.93,9.29-10.58,23.8q-8.52-3.53-17.04-7.05c2.18-10.42-1.95-30.5-10.28-26.44-2.25,1.1-3.09,25.6-41.72,13.52-34.36-10.75-50.32-44.5-53.77-77.86-.97-9.35-2.72-84.01-1.18-88.15.73-1.95,9.38-.8,12.34-11.17.92-3.21,2.54-27.13,5.29-42.02.94.56,2.72,1.69,2.94,2.64,1.42,6.26-3.22,75.86,4.11,110.48,9.18,43.31,39.8,79.97,87.85,73.16,9-1.28,21.71-6.98,32.32-8.23,33.72-3.97,50.52,7.58,76.39,11.17,34.23,4.75,70.29-.16,100.49-17.63,42.05-24.33,45.44-59.98,57.29-102.54,3.43-12.31,9.31-22.9,12.34-42.9.85-5.65.62-15.03,2.35-14.98Z"/>
        <path class="cls-5" d="M39.9,290.89l1.47.29c16.8,26.5,46.99,41.8,77.86,32.03-.94,13.52-20.3,13.61-30.56,11.17-19.18-4.57-44.31-23.1-48.77-43.49Z"/>
      </g>
      <path class="cls-5" d="M418.05,128.71c-1.73-.05-1.5,9.34-2.35,14.98-3.03,20-8.91,30.59-12.34,42.9-11.85,42.56-15.25,78.21-57.29,102.54-30.19,17.47-66.26,22.38-100.49,17.63-25.87-3.59-42.68-15.14-76.39-11.17-10.61,1.25-23.32,6.95-32.32,8.23-48.05,6.81-78.67-29.85-87.85-73.16-7.34-34.62-2.7-104.22-4.11-110.48-.22-.95-2-2.08-2.94-2.64C56.41,39.26,115.73,18.68,188.58,24.11c10.77.8,22.84,3.94,33.5,4.7,48.63,3.49,107.44-21.87,156.9,13.52,29.3,20.96,37.17,52.39,39.08,86.38Z"/>
      <path class="cls-5" d="M399.83,155.15c-2.17,19.58-6.6,65.78-35.26,57-.12-6.59-1.96-14.5-2.94-21.15,1.56-11.23,18.85-7.98,32.32-27.91,1.88-2.79,3.09-8.37,5.88-7.93Z"/>
      <path class="cls-5" d="M321.68,233.89c-11.59,6.58-25.8,5.48-38.2,2.35,4.11-5.88,5.45-17.6,6.17-24.68,4.59,18.17,25.16,15.66,27.03-2.94,1.22,8.52.6,17.51,4.99,25.27Z"/>
      <path class="cls-5" d="M147.74,216.85c.48,5.43-.21,10.61,2.35,15.87-5.97,4.09-34.28,15.12-39.08,13.52-.22-.07-.98-1.84-.88-2.35,16.22-2.2,31.28-13.59,35.26-29.97l2.35-.88c-1.24,4.12-.02,3.63,0,3.82Z"/>
      <path class="cls-5" d="M210.61,239.77c-5.76,3.37-22.98,4.43-28.21,1.18,4.97-3.08,9.48-13.21,10.28-13.52.52-.2,10.65-.22,11.17,0,.65.28,2.52,8.63,6.76,12.34Z"/>
      <g>
        <path class="cls-5" d="M374.56,58.19c-1.01,8.29-.01,16.6-4.7,24.09-23.79-35.89-55.31-38.82-94.32-41.72-1.5-.11-.23-1.17-.29-1.18,38.37-8.25,70.31-11.45,99.31,18.8Z"/>
        <path class="cls-5" d="M381.61,67c2.53,11.08,3.09,22.93-1.76,33.5-1.52-1.87-6.37-12.75-9.99-18.22,4.69-7.49,3.69-15.8,4.7-24.09,2.74,2.85,4.71,5.68,7.05,8.81Z"/>
        <path class="cls-5" d="M391.02,81.7c1.46,5.41,2.53,19.76-4.99,21.15-3.45.64-4.25.02-6.17-2.35,4.85-10.56,4.29-22.41,1.76-33.5,1.81,2.42,7.51,7.68,9.4,14.69Z"/>
      </g>
      <g>
        <path class="cls-5" d="M202.97,38.8c-7.57,2.91-17.63,2.63-26.15,4.11-16.32,2.85-38.68,9.07-53.18,17.04q-4.11-7.93-8.23-15.87c30.17-13.56,56.28-6.69,87.56-5.29Z"/>
        <path class="cls-5" d="M115.42,44.09q4.11,7.93,8.23,15.87c-9.67,5.32-20.23,13.51-27.62,21.74q-4.99-7.93-9.99-15.87c8.56-9.4,17.74-16.51,29.38-21.74Z"/>
        <path class="cls-5" d="M96.02,81.7c-11.13,12.4-15.49,28.14-17.04,22.33-1.92-9.11,1.85-16.9-2.94-25.27,2.09-4.08,6.8-9.42,9.99-12.93q4.99,7.93,9.99,15.87Z"/>
        <path class="cls-5" d="M78.98,104.03c-3.05-2.92-5.53-8.86-5.88-12.93-.53-6.32.3-7.21,2.94-12.34,4.79,8.37,1.01,16.16,2.94,25.27Z"/>
      </g>
      <g>
        <path class="cls-5" d="M275.25,39.39c.06,0-1.21,1.06.29,1.18,39.01,2.9,70.52,5.83,94.32,41.72,3.62,5.46,8.47,16.35,9.99,18.22,1.92,2.37,2.72,2.99,6.17,2.35,7.53-1.39,6.45-15.75,4.99-21.15,13.17,20.76,11.48,49.36,8.81,73.45-2.78-.44-3.99,5.15-5.88,7.93-13.47,19.93-30.76,16.68-32.32,27.91-1.02-6.96-7.63-46.61-8.23-49.07-7.6-31.44-38.23-17.03-47.3,7.93-10.95-29.59-38.73-34.14-46.13-11.46-2.67,8.19-10.51,59.45-13.81,74.34-6.34-18.55-19.67-82.44-24.39-93.73-6.59-15.79-27.1-16.71-37.02-3.53-5.36,7.12-34,85.77-37.02,101.37-.02-.19-1.24.3,0-3.82l-2.35.88c5.98-24.64-7.42-51.2-28.79-63.76,24.94-6.57,20.71-32.57,2.64-39.67-22.72-8.93-50.5,9.25-53.77,32.91-1.07-6.53.48-51.46,6.17-53.47l1.47,1.18c.34,4.07,2.83,10.01,5.88,12.93,1.55,5.81,5.91-9.93,17.04-22.33,7.39-8.23,17.95-16.43,27.62-21.74,14.5-7.97,36.86-14.19,53.18-17.04,8.52-1.49,18.58-1.2,26.15-4.11,20.98.94,34.54,1.75,56.12,1.18,3.01-.08,13.39-1.82,14.1-1.76.25.02,1.94,1.17,2.06,1.18Z"/>
        <path class="cls-5" d="M151.56,74.06c4.3.54,2.28,19.45-8.81,15.87-6.85-7.83,1.14-13.68,8.81-15.87Z"/>
        <path class="cls-5" d="M320.21,78.76l1.47.29c3.5,12.9,12.28.29,9.11,13.81-9.74-1.26-11.88-13.12-10.58-14.1Z"/>
      </g>
      <text class="cls-6" transform="translate(61.77 128.44)"><tspan x="0" y="0">Helloo! I’m Glisten </tspan><tspan x="0" y="43.2">the slim</tspan><tspan class="cls-9" x="135.76" y="43.2">e</tspan><tspan x="155.78" y="43.2">, and I li</tspan><tspan class="cls-7" x="290.46" y="43.2">v</tspan><tspan x="309.5" y="43.2">e </tspan><tspan x="0" y="86.4">in the </tspan><tspan class="cls-7" x="105.38" y="86.4">f</tspan><tspan x="116.89" y="86.4">o</tspan><tspan class="cls-8" x="138.64" y="86.4">r</tspan><tspan x="153.51" y="86.4">est with </tspan><tspan x="0" y="129.6">my friends!!</tspan></text>
    </g>
  </g>
</svg>