<?xml version="1.0" encoding="UTF-8"?>
<svg id="_圖層_2" data-name="圖層 2" xmlns="http://www.w3.org/2000/svg" viewBox="0 0 489.59 261.42">
  <defs>
    <style>
      .cls-1 {
        fill: #261214;
      }

      .cls-1, .cls-2, .cls-3, .cls-4, .cls-5 {
        stroke-width: 0px;
      }

      .cls-6 {
        fill: #000;
        font-family: ArialRoundedMTBold, 'Arial Rounded MT Bold';
        font-size: 36px;
      }

      .cls-2 {
        fill: #00556b;
      }

      .cls-7 {
        letter-spacing: -.01em;
      }

      .cls-3 {
        fill: #9e8e91;
      }

      .cls-4 {
        fill: #f9f9fa;
      }

      .cls-5 {
        fill: #fff;
      }
    </style>
  </defs>
  <g id="_圖層_1-2" data-name="圖層 1">
    <g>
      <path class="cls-3" d="M97.35,193.05c6.03,1.54,12.6,2.51,19.87,2.04,18.06-1.15,53.85-25.18,63.85-31.66,32.39,7.29,83.28,7.76,117.28,2.04,8.97-1.51,16.57-4.07,17.59-4.09,2.21-.04,15.81,4.13,42.35,4.6,69.92,1.24,123.16-20.07,128.68-49.28l2.61.13c.47,32.36-75.48,57.45-157.35,48.9-2.79-.29-14.62-2.57-15.64-2.55-.83.01-11.32,2.8-14.33,3.32-36.88,6.39-83.77,5.99-119.89-1.02-14.95,7.63-53.77,41.64-85.03,27.58Z"/>
      <path class="cls-4" d="M486.98,116.7c-5.53,29.21-58.76,50.52-128.68,49.28-26.55-.47-40.14-4.64-42.35-4.6-1.02.02-8.62,2.58-17.59,4.09-34.01,5.72-84.89,5.24-117.28-2.04-10,6.48-45.79,30.51-63.85,31.66-7.27.46-13.84-.5-19.87-2.04-22.13-9.96,4.66-22.51,14.99-32.17.39-.37,2.67-.86,1.63-1.28-33.74-.88-56.12-5.31-79.17-14.81C-1.65,125.75,2.01,103.93,3.52,81.08c.36-5.46,4.51-20.16,3.91-21.19-.3-.51-12.96-3.79-4.56-9.45,7.38-4.97,20.66-2.47,21.5-2.81,1.71-.69,1.82-8.1,15.64-18.13C62.23,13.37,104.38,3.69,149.8,1.03c10.95-.64,16.73-.2,19.55-.26.22,0,3.29-.76,3.91-.77,6.72-.07,7.41.51,7.82.51,30.99.15,63.28,2.83,87.96,2.55,19.64-.22,39.08-2.4,58.64-2.81,92.22-1.93,154.45,16.89,160.61,53.75,1.03,6.17-.04,56.02-1.3,62.69Z"/>
      <path class="cls-1" d="M330.28,4.6c85.98-1.5,142.44,15.06,147.58,49.67.54,3.61-.07,58.36-.65,61.79-4.56,27.06-59.63,48.93-129.34,45.07-20.31-1.13-30.16-5.62-31.93-5.62-.86,0-9.13,3.07-13.68,4.09-33.61,7.5-93.73,7.44-124.45-2.55-6.1,5.53-50.34,31.47-59.94,32.94-6.82,1.04-16.22-.19-18.57-3.19-6.54-8.36,31.83-27.51,35.84-36.52-26.46,9.89-71.35,1.05-91.87-8.17C-.68,122.35,19.79,95.64,14.6,72.14c-.02-.1-2.86-.42-1.95-1.79.15-.22,3.08-1.04,3.26-1.28.64-.85-.49-5.14,0-6.89.11-.39,4.05-2.72,2.61-3.83-.18-.14-5.18-.51-6.52-1.79-5.25-5.02,12.85-6.69,16.29-2.81,2.4,2.71-4.44,3.96-4.56,4.34-.04.13,2.25.94,1.3,2.55-.41.7-3.96,1.39-3.26,2.04,1.13,1.04,6.84-1.51,2.61,5.36,8.25,2.36,5.94-13.16,9.77-20.94C44.67,25.74,86.59,10.19,140.68,6.13c51.66-3.87,94.97,1.81,135.53,1.02,17.97-.35,36.05-2.24,54.08-2.55Z"/>
      <path class="cls-3" d="M112.33,160.88c-32.57-.22-58.3-6.04-77.54-16.09,23.04,9.5,45.43,13.93,79.17,14.81,1.04.41-1.24.91-1.63,1.28Z"/>
      <path class="cls-2" d="M326.7,145.81c-.36-1.19-2.87-3.37-5.21-4.09-11.78-3.59-14.92,1.97-25.74,5.36-27.55,8.64-85.12,9.68-111.74-.26-.26-.66-1.04-1.24-.65-2.04,21.41,3.44,28.53,6.27,61.57,4.85,42.38-1.83,57.41-10.45,61.9-11.24,16.38-2.85,14.82,6.73,41.7,7.92,35.72,1.57,78.17-7.25,99.04-18.64-5.43,4.88-15.82,10.29-26.06,13.79-24.04,8.21-69.02,14.16-94.8,4.34Z"/>
      <path class="cls-5" d="M321.49,141.73c-10.32-.92-.46,5.36-23.13,10.98-25.92,6.43-79.41,7.26-105.55.77-9.67-2.4-7.17-2.47-8.8-6.64,26.62,9.93,84.2,8.9,111.74.26,10.82-3.4,13.96-8.95,25.74-5.36Z"/>
      <path class="cls-5" d="M164.46,155c-13.09,9.74-34,20.85-52.45,29.11l-2.28-.89c.51-7.87,33.14-26.22,35.84-31.28l18.9,3.06Z"/>
      <path class="cls-4" d="M18.18,53.63c9.96-.32,2.99,5.08-2.28,1.4l2.28-1.4Z"/>
      <g>
        <path class="cls-5" d="M463.53,55.93c1.23,8.59,1.67,52.66,0,59.62-2.11,8.84-10.65,18.46-25.41,25.28-22.29,10.3-63.7,16.75-97.41,12.64-19.84-2.42-13.04-4.43-14.01-7.66,25.78,9.82,70.76,3.87,94.8-4.34,10.25-3.5,20.64-8.9,26.06-13.79-20.87,11.39-63.32,20.22-99.04,18.64-26.88-1.19-25.32-10.77-41.7-7.92-4.48.78-19.52,9.41-61.9,11.24-33.04,1.42-40.16-1.41-61.57-4.85-.4-.06-3.85-1.99-7.17-.13-.83.47-3.25,4.04-11.73,10.34l-18.9-3.06c2.42-4.53-2.16-13.25-11.4-11.49-2.49.48-3.43,11.12-46.26,5.87-38.1-4.67-55.79-19.34-59.62-33.83-1.07-4.06-3.01-36.51-1.3-38.3.8-.85,10.4-.35,13.68-4.85,1.01-1.39,2.82-11.79,5.86-18.26,1.04.25,3.02.73,3.26,1.15,1.57,2.72-3.57,32.96,4.56,48.01,10.18,18.82,44.13,34.75,97.41,31.79,9.98-.55,24.07-3.03,35.84-3.57,37.38-1.73,56.02,3.29,84.7,4.85,37.95,2.06,77.94-.07,111.42-7.66,46.62-10.57,50.39-26.07,63.53-44.56,3.8-5.35,10.33-9.95,13.68-18.64.95-2.45.68-6.53,2.61-6.51Z"/>
        <path class="cls-5" d="M44.25,126.4l1.63.13c18.63,11.51,52.11,18.16,86.33,13.92-1.04,5.87-22.51,5.91-33.88,4.85-21.26-1.99-49.13-10.04-54.08-18.9Z"/>
      </g>
      <path class="cls-5" d="M463.53,55.93c-1.92-.02-1.66,4.06-2.61,6.51-3.35,8.69-9.88,13.29-13.68,18.64-13.14,18.49-16.9,33.99-63.53,44.56-33.48,7.59-73.46,9.72-111.42,7.66-28.68-1.56-47.32-6.58-84.7-4.85-11.77.54-25.85,3.02-35.84,3.57-53.28,2.96-87.23-12.97-97.41-31.79-8.13-15.04-2.99-45.29-4.56-48.01-.24-.41-2.22-.9-3.26-1.15C62.55,17.06,128.31,8.12,209.09,10.48c11.95.35,25.32,1.71,37.14,2.04,53.92,1.52,119.12-9.5,173.97,5.87,32.49,9.11,41.21,22.77,43.33,37.54Z"/>
      <path class="cls-5" d="M443.33,67.42c-2.4,8.51-7.32,28.58-39.09,24.77-.14-2.86-2.18-6.3-3.26-9.19,1.72-4.88,20.9-3.47,35.84-12.13,2.09-1.21,3.43-3.64,6.52-3.45Z"/>
      <path class="cls-5" d="M356.67,101.64c-12.85,2.86-28.61,2.38-42.35,1.02,4.56-2.56,6.04-7.65,6.84-10.72,5.09,7.9,27.9,6.81,29.97-1.28,1.35,3.7.67,7.61,5.54,10.98Z"/>
      <path class="cls-5" d="M163.81,94.23c.53,2.36-.23,4.61,2.61,6.89-6.62,1.78-38.01,6.57-43.33,5.87-.24-.03-1.08-.8-.98-1.02,17.99-.96,34.68-5.9,39.09-13.02l2.61-.38c-1.38,1.79-.02,1.58,0,1.66Z"/>
      <path class="cls-5" d="M233.53,104.19c-6.39,1.46-25.48,1.93-31.28.51,5.51-1.34,10.52-5.74,11.4-5.87.58-.09,11.81-.1,12.38,0,.72.12,2.8,3.75,7.49,5.36Z"/>
      <g>
        <path class="cls-5" d="M415.31,25.29c-1.12,3.6-.01,7.21-5.21,10.47-26.38-15.6-61.32-16.87-104.58-18.13-1.67-.05-.26-.51-.33-.51,42.55-3.59,77.96-4.97,110.11,8.17Z"/>
        <path class="cls-5" d="M423.13,29.12c2.81,4.82,3.42,9.96-1.95,14.55-1.68-.81-7.06-5.54-11.08-7.92,5.2-3.26,4.09-6.87,5.21-10.47,3.03,1.24,5.22,2.47,7.82,3.83Z"/>
        <path class="cls-5" d="M433.56,35.5c1.62,2.35,2.81,8.59-5.54,9.19-3.83.28-4.71,0-6.84-1.02,5.38-4.59,4.76-9.74,1.95-14.55,2,1.05,8.33,3.34,10.43,6.38Z"/>
      </g>
      <g>
        <path class="cls-5" d="M225.06,16.86c-8.39,1.27-19.54,1.14-28.99,1.79-18.1,1.24-42.89,3.94-58.97,7.41l-9.12-6.89c33.45-5.89,62.4-2.91,97.08-2.3Z"/>
        <path class="cls-5" d="M127.97,19.16l9.12,6.89c-10.73,2.31-22.43,5.87-30.62,9.45q-5.54-3.45-11.08-6.89c9.49-4.08,19.67-7.17,32.58-9.45Z"/>
        <path class="cls-5" d="M106.47,35.5c-12.34,5.39-17.18,12.23-18.9,9.7-2.13-3.96,2.05-7.34-3.26-10.98,2.32-1.77,7.54-4.1,11.08-5.62q5.54,3.45,11.08,6.89Z"/>
        <path class="cls-5" d="M87.57,45.2c-3.38-1.27-6.14-3.85-6.52-5.62-.59-2.75.33-3.13,3.26-5.36,5.31,3.64,1.12,7.02,3.26,10.98Z"/>
      </g>
      <g>
        <path class="cls-5" d="M305.2,17.11c.07,0-1.34.46.33.51,43.25,1.26,78.2,2.53,104.58,18.13,4.01,2.37,9.39,7.1,11.08,7.92,2.13,1.03,3.02,1.3,6.84,1.02,8.35-.61,7.15-6.84,5.54-9.19,14.6,9.02,12.73,21.45,9.77,31.92-3.09-.19-4.43,2.24-6.52,3.45-14.94,8.66-34.11,7.25-35.84,12.13-1.13-3.03-8.46-20.25-9.12-21.32-8.43-13.66-42.39-7.4-52.45,3.45-12.14-12.86-42.94-14.83-51.15-4.98-2.96,3.56-11.66,25.83-15.31,32.3-7.04-8.06-21.81-35.82-27.04-40.73-7.31-6.86-30.04-7.26-41.05-1.53-5.94,3.09-37.7,37.27-41.05,44.05-.02-.08-1.38.13,0-1.66l-2.61.38c6.64-10.71-8.23-22.25-31.93-27.71,27.66-2.85,22.96-14.15,2.93-17.24-25.19-3.88-56,4.02-59.62,14.3-1.18-2.84.53-22.36,6.84-23.24l1.63.51c.38,1.77,3.14,4.35,6.52,5.62,1.72,2.53,6.55-4.32,18.9-9.7,8.19-3.58,19.9-7.14,30.62-9.45,16.08-3.46,40.87-6.17,58.97-7.41,9.45-.65,20.6-.52,28.99-1.79,23.27.41,38.29.76,62.22.51,3.33-.03,14.85-.79,15.64-.77.27,0,2.15.51,2.28.51Z"/>
        <path class="cls-5" d="M168.04,32.18c4.76.23,2.53,8.45-9.77,6.89-7.6-3.4,1.26-5.95,9.77-6.89Z"/>
        <path class="cls-5" d="M355.04,34.22l1.63.13c3.88,5.61,13.62.13,10.1,6-10.8-.55-13.18-5.7-11.73-6.13Z"/>
      </g>
      <text class="cls-6" transform="translate(110.77 70.44)"><tspan class="cls-7" x="0" y="0">T</tspan><tspan x="22.03" y="0">his is my friend </tspan><tspan x="0" y="43.2">Cinnamon!</tspan></text>
    </g>
  </g>
</svg>