<?xml version="1.0" encoding="UTF-8"?>
<svg id="_圖層_2" data-name="圖層 2" xmlns="http://www.w3.org/2000/svg" viewBox="0 0 564.33 253">
  <defs>
    <style>
      .cls-1 {
        fill: #000;
        font-family: ArialRoundedMTBold, 'Arial Rounded MT Bold';
        font-size: 36px;
      }

      .cls-2 {
        letter-spacing: -.03em;
      }

      .cls-3 {
        letter-spacing: -.02em;
      }

      .cls-4 {
        letter-spacing: -.05em;
      }

      .cls-5 {
        fill: #032b3c;
      }

      .cls-5, .cls-6 {
        stroke-width: 0px;
      }

      .cls-6 {
        fill: #fff;
      }
    </style>
  </defs>
  <g id="_圖層_1-2" data-name="圖層 1">
    <g>
      <path class="cls-5" d="M411.16.16c52.17-1.86,101.72,12.35,112.96,39.52.97,2.34.04,7.78.84,8.97,1.67,2.48,44.96,14.81,38.63,46.14-2.76,13.65-20.43,21.8-20.16,23.07.07.35,7.86,4.01,9.24,5.13,19.24,15.69,14.87,37.64-14.7,49.34-16.59,6.57-31.16,5.99-32.75,6.41-3.8.99-16.76,22.39-69.71,19.65-27.73-1.43-43.6-11.12-46.19-11.11-2.13,0-7.27,7.59-23.1,18.16-8.04,5.37-72.49,44.83-77.69,46.35-12.58,3.68-27.75-1.4-18.9-10.47,4.65-4.76,33.89-21.62,19.32-40.59-7.46-9.71-10.99-2.96-35.69-1.92-45.72,1.93-62.03-9.5-65.51-9.4-2.26.07-14.2,8.11-37.79,12.39-41.07,7.44-92.65,1.12-118-17.73-25.42-18.9-12.63-37.6-13.44-39.73-1.1-2.9-44.73-25.17,5.88-53.4C-49.49,39.05,62.16-7.76,159.2,29.21c40.63-27.57,109.67-31.62,155.37-4.7C339.85,11.92,375.27,1.44,411.16.16Z"/>
      <path class="cls-6" d="M411.16,14.69c24.22-1.03,52.39,2.77,69.29,12.18,22.46,12.51,13.47,25.56,15.96,28.62,2.23,2.75,49.29,14.5,36.95,41.44-6.64,14.5-39.07,18.69-24.36,27.77,3.81,2.35,29.93,4.5,26.88,21.79-3.47,19.63-45.93,18.81-49.13,19.44-6.85,1.35-6.14,9.07-18.48,14.1-32.49,13.24-67.5-7.75-75.59-8.97-20.97-3.16-25.49,9.29-42.41,21.15-8.47,5.93-19.17,11.14-28.14,16.88-1.09-7.7-17.15-28.37-34.43-29.05-9.19-.36-42.69,9.88-75.59.85-9.25-2.54-17.68-9.5-28.56-8.12-2.56.33-22.77,11.31-40.31,14.95-50.72,10.52-105.41-7.88-98.68-36.53.9-3.81,7.15-7.95,5.04-11.53-1.84-3.13-30.13-11.22-17.64-29.48,5.61-8.21,22.13-11.84,25.2-14.1,10.95-8.08-7.86-10.73-17.64-19.22-30.71-26.68,9.99-56.87,78.53-42.94,29.15,5.93,40.92,18.72,57.53,9.19,6.69-3.84,22.7-19.85,56.69-22,60.68-3.84,60.12,28.43,89.02,19.65,6.86-2.08,41.96-24.02,89.86-26.06Z"/>
    </g>
    <text class="cls-1" transform="translate(83.33 119.01)"><tspan x="0" y="0">Whe</tspan><tspan class="cls-3" x="76.9" y="0">r</tspan><tspan x="91.78" y="0">e did th</tspan><tspan class="cls-2" x="220.41" y="0">e</tspan><tspan x="240.87" y="0">y all </tspan><tspan class="cls-3" x="319.29" y="0">g</tspan><tspan class="cls-4" x="340.89" y="0">o</tspan><tspan x="360.84" y="0">...?</tspan></text>
  </g>
</svg>