<?xml version="1.0" encoding="UTF-8"?>
<svg id="_圖層_2" data-name="圖層 2" xmlns="http://www.w3.org/2000/svg" viewBox="0 0 604.33 279">
  <defs>
    <style>
      .cls-1 {
        fill: #000;
        font-family: ArialRoundedMTBold, 'Arial Rounded MT Bold';
        font-size: 36px;
      }

      .cls-2 {
        letter-spacing: .01em;
      }

      .cls-3 {
        letter-spacing: -.01em;
      }

      .cls-4 {
        letter-spacing: -.03em;
      }

      .cls-5 {
        letter-spacing: -.02em;
      }

      .cls-6 {
        letter-spacing: -.05em;
      }

      .cls-7 {
        fill: #032b3c;
      }

      .cls-7, .cls-8 {
        stroke-width: 0px;
      }

      .cls-8 {
        fill: #fff;
      }
    </style>
  </defs>
  <g id="_圖層_1-2" data-name="圖層 1">
    <g>
      <path class="cls-7" d="M440.3.18c55.86-2.05,108.93,13.62,120.97,43.58,1.03,2.58.04,8.58.9,9.89,1.79,2.73,48.15,16.34,41.37,50.88-2.95,15.05-21.88,24.04-21.59,25.44.08.38,8.42,4.42,9.89,5.65,20.6,17.3,15.92,41.51-15.74,54.41-17.76,7.24-33.37,6.61-35.08,7.07-4.07,1.09-17.95,24.69-74.65,21.67-29.7-1.58-46.69-12.26-49.47-12.25-2.28,0-7.79,8.37-24.73,20.02-8.61,5.92-77.63,49.44-83.19,51.12-13.47,4.06-29.72-1.54-20.24-11.54,4.98-5.25,36.3-23.84,20.69-44.76-7.99-10.7-11.77-3.27-38.22-2.12-48.96,2.13-66.42-10.48-70.15-10.36-2.42.07-15.2,8.95-40.47,13.66-43.98,8.21-99.21,1.24-126.36-19.55-27.22-20.84-13.52-41.47-14.39-43.81-1.18-3.2-47.91-27.76,6.3-58.89C-52.99,43.06,66.57-8.56,170.49,32.21,213.99,1.81,287.93-2.66,336.87,27.03,363.94,13.15,401.87,1.59,440.3.18Z"/>
      <path class="cls-8" d="M440.3,16.2c25.94-1.14,56.11,3.05,74.2,13.43,24.05,13.79,14.42,28.19,17.09,31.57,2.39,3.03,52.78,15.99,39.57,45.7-7.11,15.99-41.84,20.61-26.08,30.62,4.08,2.59,32.05,4.96,28.78,24.03-3.71,21.65-49.18,20.74-52.61,21.44-7.34,1.48-6.58,10-19.79,15.55-34.79,14.6-72.28-8.55-80.94-9.89-22.46-3.48-27.3,10.25-45.42,23.32-9.07,6.54-20.53,12.28-30.13,18.61-1.16-8.49-18.37-31.28-36.87-32.04-9.84-.4-45.72,10.9-80.94.94-9.91-2.8-18.94-10.47-30.58-8.95-2.74.36-24.38,12.48-43.17,16.49-54.32,11.6-112.88-8.69-105.68-40.28.96-4.21,7.66-8.77,5.4-12.72-1.97-3.45-32.27-12.37-18.89-32.51,6.01-9.05,23.7-13.06,26.98-15.55,11.72-8.91-8.41-11.83-18.89-21.2-32.89-29.42,10.7-62.72,84.09-47.35,31.22,6.54,43.82,20.65,61.61,10.13,7.17-4.24,24.3-21.89,60.71-24.26,64.98-4.23,64.39,31.35,95.33,21.67,7.35-2.3,44.93-26.49,96.23-28.74Z"/>
    </g>
    <text class="cls-1" transform="translate(77.33 106.01)"><tspan x="0" y="0">Did th</tspan><tspan class="cls-4" x="102.39" y="0">e</tspan><tspan x="122.85" y="0">y le</tspan><tspan class="cls-5" x="182.51" y="0">a</tspan><tspan class="cls-3" x="203.01" y="0">v</tspan><tspan x="222.05" y="0">e me? I am not </tspan><tspan x="0" y="43.2">ma</tspan><tspan class="cls-5" x="53.24" y="43.2">k</tspan><tspan x="72.98" y="43.2">ing n</tspan><tspan class="cls-3" x="157.73" y="43.2">e</tspan><tspan x="178.65" y="43.2">w </tspan><tspan class="cls-2" x="216.91" y="43.2">f</tspan><tspan x="229.34" y="43.2">i</tspan><tspan class="cls-5" x="239.1" y="43.2">r</tspan><tspan x="253.97" y="43.2">end</tspan><tspan class="cls-6" x="319.61" y="43.2">s</tspan><tspan x="337.32" y="43.2">...</tspan></text>
  </g>
</svg>