<?xml version="1.0" encoding="utf-8"?>
<!-- Generator: Adobe Illustrator 28.3.0, SVG Export Plug-In . SVG Version: 6.00 Build 0)  -->
<svg version="1.1" id="Layer_1" xmlns:vectornator="http://vectornator.io"
	 xmlns="http://www.w3.org/2000/svg" xmlns:xlink="http://www.w3.org/1999/xlink" x="0px" y="0px" viewBox="0 0 612 792"
	 style="enable-background:new 0 0 612 792;" xml:space="preserve">
<style type="text/css">
	.st0{opacity:0.3098;stroke:#000000;stroke-miterlimit:10;}
	.st1{fill:#AE1212;stroke:#4A0706;stroke-width:4.2925;stroke-linecap:round;stroke-linejoin:round;stroke-miterlimit:5.1256;}
	.st2{filter:url(#Filter);}
	.st3{fill:#D5694F;}
	.st4{fill:none;stroke:#D5694F;stroke-width:12.4504;stroke-linejoin:round;stroke-miterlimit:5.1256;}
	.st5{filter:url(#Filter_2);}
	.st6{fill:#4A0706;}
	.st7{fill:#671B1B;}
	.st8{fill:#4A0706;stroke:#000000;stroke-width:1.2897;stroke-linecap:round;stroke-linejoin:round;stroke-miterlimit:5.1256;}
	.st9{fill:#4A0706;stroke:#000000;stroke-width:1.5765;stroke-linecap:round;stroke-linejoin:round;stroke-miterlimit:5.1256;}
	.st10{stroke:#000000;stroke-width:3.5816;stroke-linecap:round;stroke-linejoin:round;stroke-miterlimit:5.1256;}
	.st11{stroke:#000000;stroke-width:3.6766;stroke-linecap:round;stroke-linejoin:round;stroke-miterlimit:5.1256;}
	.st12{clip-path:url(#SVGID_00000134942655981806164760000007999191075476856224_);}
	
		.st13{opacity:0.6519;fill:none;stroke:#414F62;stroke-width:1.081;stroke-linecap:round;stroke-linejoin:round;stroke-miterlimit:5.1256;enable-background:new    ;}
	.st14{fill:none;stroke:#4A0706;stroke-width:6.1512;stroke-linecap:round;stroke-linejoin:round;stroke-miterlimit:5.1256;}
</style>
<filter  color-interpolation-filters="sRGB" filterUnits="userSpaceOnUse" height="97.265" id="Filter_2" width="135.483" x="317.312" y="465.006">
	<feGaussianBlur  in="SourceGraphic" result="Blur" stdDeviation="13.8566"></feGaussianBlur>
</filter>
<filter  color-interpolation-filters="sRGB" filterUnits="userSpaceOnUse" height="97.265" id="Filter" width="135.483" x="623.937" y="487.484">
	<feGaussianBlur  in="SourceGraphic" result="Blur" stdDeviation="13.8566"></feGaussianBlur>
</filter>
<ellipse class="st0" cx="293" cy="521" rx="167.5" ry="31"/>
<g id="Layer-2" vectornator:layerName="Layer 2">
	<path vectornator:layerName="Curve 1" class="st1" d="M144.7,431.4c-6.1-26.3,43.8-128.2,43.8-128.2l13.3,15.4l27.9-44.6
		c0,0,9.6,47,16.2,40.5c28.1-28.1,51.1-57.7,51.1-57.7l54.7,67.8l13.7-52.3l16.2,50.7l16.6-20.1c0,0,30,120.7,26.3,135.6
		c-35.3,141.4-270.2,107.2-278.9-6.4"/>
	<g vectornator:blur="27.7132" vectornator:layerName="Oval 7" class="st2">
		<path class="st3" d="M343.8,457.1c0-0.5,4.8-0.9,10.7-0.9s10.7,0.4,10.7,0.9c0,0.5-4.8,0.9-10.7,0.9S343.8,457.6,343.8,457.1z"/>
		<path class="st4" d="M343.8,457.1c0-0.5,4.8-0.9,10.7-0.9s10.7,0.4,10.7,0.9c0,0.5-4.8,0.9-10.7,0.9S343.8,457.6,343.8,457.1z"/>
	</g>
	<g vectornator:blur="27.7132" vectornator:layerName="Oval 8" class="st5">
		<path class="st3" d="M186.6,445.5c0-0.5,4.8-0.9,10.7-0.9c5.9,0,10.7,0.4,10.7,0.9c0,0.5-4.8,0.9-10.7,0.9
			C191.4,446.5,186.6,446.1,186.6,445.5z"/>
		<path class="st4" d="M186.6,445.5c0-0.5,4.8-0.9,10.7-0.9c5.9,0,10.7,0.4,10.7,0.9c0,0.5-4.8,0.9-10.7,0.9
			C191.4,446.5,186.6,446.1,186.6,445.5z"/>
	</g>
	<g vectornator:layerName="Curve 11">
		<path class="st6" d="M219.2,344.7c-0.2,0.1-0.5,0.2-0.7,0.4c-0.4,0.4-0.5,1-0.2,1.3c2.5,1.1,5.1,2.2,7.5,3.5
			c0.9,0.5,1.9,1,2.7,1.5c0.8,0.5,1.5,1.1,2.3,1.7c2.3,1.8,4.4,3.8,6.5,5.9c1.9,1.8,3.7,3.8,5.8,5.3c1.7,1.2,3.5,2.2,5.3,3.2
			c1,0.5,1.9,1,2.9,1.4c0.6,0.2,1.3,0.4,1.9,0.6c1,0.4,2,0.8,3,1.1c2,0.6,4,1.1,6.1,1.4c2.4,0.4,4.8,0.6,7.3,0.4
			c1.5,0.5,3.4-1,4.1-3.4c0.7-2.4,0.1-4.7-1.4-5.2c-1.2,0.2-2.4,0.1-3.7,0.1c-2-0.1-4-0.3-6-0.6c-1.5-0.2-3-0.3-4.4-0.6
			c-1-0.2-2.1-0.5-3.1-0.7c-2.6-0.5-5.1-1.1-7.6-2.2c-2.1-0.9-4-2.1-5.9-3.4c-1.6-1-3.2-2-4.8-3c-1.6-0.9-3.1-1.8-4.8-2.7
			c-0.7-0.3-1.4-0.7-2.1-1c-1.2-0.6-2.3-1.3-3.5-2c-2.2-1.2-4.5-2.2-6.8-3.2C219.6,344.6,219.4,344.6,219.2,344.7z"/>
	</g>
	<g vectornator:layerName="Curve 12">
		<path class="st6" d="M359.4,346c-2.3,1-4.7,2-6.9,3.2c-1.2,0.6-2.4,1.3-3.6,2c-2.1,1.1-4.1,2.3-6.2,3.5c-1.8,1.1-3.5,2.3-5.2,3.5
			c-1.6,1.1-3.2,2.2-4.9,3c-2.1,1-4.5,1.7-6.8,2.2c-0.9,0.2-1.8,0.5-2.8,0.6c-1.1,0.2-2.2,0.3-3.4,0.5c-2,0.3-4,0.5-6.1,0.7
			c-1.2,0.1-2.4,0.1-3.6-0.1c-1.5-0.9-3.9,0.4-5.2,2.7c-1.3,2.4-1.2,5,0.4,5.8c2.3,0.2,4.6,0,6.9-0.4c2.4-0.4,4.8-0.8,7.1-1.5
			c1.2-0.3,2.3-0.8,3.4-1.2c0.7-0.2,1.4-0.4,2.1-0.7c1.4-0.5,2.7-1.1,4-1.7c2.1-1,4.2-2.1,6.1-3.4c2.1-1.5,4-3.3,5.9-5.1
			c2-1.8,4-3.6,6.1-5.2c0.9-0.7,1.9-1.4,2.8-2.1c1.1-0.7,2.3-1.3,3.4-1.9c2.2-1.1,4.4-2.1,6.6-3.1c0.3-0.1,0.4-0.4,0.3-0.8
			C359.9,346.3,359.6,346,359.4,346z"/>
	</g>
	<g vectornator:layerName="Curve 9">
		<path class="st7" d="M192.3,321.1c-1.7,0.2-3,1.1-3.1,2.3c-3.1,5.2-6.3,10.5-9,16c-1,1.9-1.8,3.8-2.7,5.8c-0.8,1.7-1.6,3.3-2.4,5
			c-1.2,2.8-2.3,5.7-3.3,8.6c-2.5,7-4.7,14.1-6.4,21.3c-0.8,3.4-1.5,6.8-2.1,10.2c-0.2,1.2-0.4,2.5-0.6,3.7
			c-0.4,2.4-0.9,4.8-1.3,7.2c-0.6,3.9-1.2,7.8-1.6,11.7c0.1,0.4,0.6,0.6,1.2,0.4c0.6-0.1,1-0.5,0.9-0.9c0.5-4.5,1.1-8.9,1.9-13.3
			c0.3-1.8,0.6-3.7,1-5.4c0.7-3,1.6-6,2.5-8.9c1.5-4.9,3.3-9.7,5.3-14.5c2-4.8,4.2-9.4,6.6-14c1-1.9,2.1-3.9,3.2-5.8
			c0.9-1.6,1.7-3.2,2.7-4.8c1-1.6,2-3.1,2.9-4.7c3.3-5.4,6.7-10.8,10.1-16.1c0.2-1.6-1.6-3.2-4-3.6C193.5,321,192.9,321,192.3,321.1
			z"/>
	</g>
	<g vectornator:layerName="Curve 10">
		<path class="st7" d="M407.4,441.4c-2.7,0.1-4.9,1.6-4.8,3.3c-1.6,4.2-3.5,8.3-5.7,12.3c-1.9,3.6-4.1,7.1-6.3,10.4
			c-0.9,1.3-1.8,2.7-2.7,4c-1.4,2-3,3.8-4.6,5.7c-2.6,3.1-5.4,6.2-8.4,9c-7.5,7.1-16,13.1-25.1,17.9c-4.4,2.3-9,4.4-13.7,6
			c-2.3,0.8-4.6,1.4-6.9,2c-5.8,1.5-11.6,2.5-17.5,3c-0.3-0.1-0.7,0.2-0.8,0.7c-0.2,0.5,0,0.9,0.3,1c5.4-0.5,10.7-1.4,16-2.6
			c3-0.7,6-1.6,9-2.6c5.5-1.7,11-3.7,16.2-6.1c9.6-4.5,18.7-10.2,26.9-17c2.5-2,4.9-4.2,7.2-6.4c1.5-1.4,3-2.9,4.4-4.4
			c1.1-1.2,2.1-2.4,3.2-3.6c2-2.3,3.9-4.6,5.7-7c5.1-7,9.3-14.7,12.7-22.7C412.4,442.7,410.1,441.3,407.4,441.4z"/>
	</g>
	<g vectornator:layerName="Group 2">
		<path vectornator:layerName="Curve 13" class="st8" d="M301.1,426.6c22.8-14,56.1-40.3,81.1-52.8"/>
		<path vectornator:layerName="Curve 14" class="st8" d="M300.3,427.2c0-2.3,10.6,6.7,11.6,7.3c9.1,5.2,24.2,4.4,34.2,3
			c27.9-4,36.7-40.6,36.7-63.9"/>
	</g>
	<g vectornator:layerName="Group 1">
		<path vectornator:layerName="Curve 13" class="st9" d="M271.4,422.5c-20.4-17.3-49.5-48.2-72.4-64.3"/>
		<path vectornator:layerName="Curve 14" class="st9" d="M272.1,423.2c0.3-2.3-11.5,5.1-12.5,5.5c-9.8,3.8-24.6,0.8-34.3-2.1
			c-27-8.1-30.2-45.6-26.8-68.6"/>
	</g>
	<path vectornator:layerName="Curve 14" class="st10" d="M223.1,425.1c-0.5,0.3-0.6,0.6-0.9,0.1c-1.1-1.8-1.9-4.1-2.4-6.1
		c-2.2-8.2,0.8-17.7,4.7-24.9c1.1-2,2.5-4.5,4.2-6.2c0.4-0.4-2.7,3.7,1.1-1.5c0.1-0.1-0.3,0.1-0.2,0.2c0.2,0.2,0.4,1.6,0.5,2
		c0.3,2,0.3,4,0.7,5.9c0.6,3.5,0,7.2-0.6,10.6c-0.9,5-2,10-4,14.7C225.6,421.1,223.8,424.7,223.1,425.1z"/>
	<path vectornator:layerName="Curve 13" class="st11" d="M337.6,437.2c0.4,0.5,0.4,0.8,0.8,0.4c1.7-1.3,3.1-3.4,4.3-5.2
		c4.7-7.2,4.9-17.5,3.5-25.8c-0.4-2.3-1-5.2-2.1-7.3c-0.2-0.5,1.4,4.5-0.5-1.8c0-0.1,0.2,0.2,0.1,0.3c-0.3,0.2-0.9,1.5-1.1,1.8
		c-0.9,1.8-1.6,3.8-2.6,5.6c-1.7,3.2-2.4,7-2.9,10.5c-0.8,5.2-1.2,10.4-0.9,15.6C336.4,432.5,337.1,436.6,337.6,437.2z"/>
</g>
<g>
	<defs>
		<rect id="SVGID_1_" y="182.3" width="612" height="427.5"/>
	</defs>
	<clipPath id="SVGID_00000127034329838216009080000012069027968436902822_">
		<use xlink:href="#SVGID_1_"  style="overflow:visible;"/>
	</clipPath>
	
		<g id="Layer-1" vectornator:layerName="Layer 1" style="clip-path:url(#SVGID_00000127034329838216009080000012069027968436902822_);">
		<path vectornator:layerName="Curve 1" class="st13" d="M411.9,628c0,1,0,1.9-0.1,2.9"/>
		<path vectornator:layerName="Curve 2" class="st14" d="M189.5,456.5c-0.6,0.2-1.1,1.2,0.2,0.8c1.8-0.5,4.4-3.1,6.1-4.1
			c4.4-2.6,8.5-5.4,13-7.9c0.4-0.2,3.8-2.6,4-2.2c1.2,1.9,1,5.7,1.5,7.9c1.2,5.5,3.2,11.7,3.4,17.3c0,0.9,0.7,6.8,1.6,6.9
			c0.4,0,3.4-5.9,3.7-6.3c1.8-2.8,15.1-19.9,18.5-14.5c2.1,3.4,1.6,7.8,2.4,11.5c1.1,5,2.7,10.1,4.5,15c0.4,1,0.5,4,1.1,4.7
			c0.6,0.7,1.1-1.5,1.6-2.2c0.7-1.1,1.3-2.4,2-3.5c3.2-5.4,5.1-11.3,8.8-16.4c0.3-0.4,2.8-4.1,3.4-3.6c2.3,1.9,5.1,18,5.6,21.5
			c0.1,0.7,0.8,6.5,2.2,6.1c0.7-0.2,3.4-5.1,3.9-5.7c3.6-5.5,6.6-11.1,10.7-16.2c0.5-0.7,1.9-3.6,2.8-3.7c1.2-0.2,3,5.3,3.3,6
			c2.5,5.5,5.8,11.7,9.1,16.8c0.3,0.5,3.1,6.4,3.6,6c0.7-0.6,1.4-3.5,1.8-4.3c3-6,5.8-12,7.7-18.4c0.2-0.6,1.6-6.2,2.6-6.1
			c0.8,0.1,2.7,4.8,3.1,5.4c3.1,5.3,5.9,9.8,10.8,13.5c0.5,0.4,0.5,1.4,1.2,1.5c0.4,0,0.1-0.7,0.1-1.1c0.1-1.2,0.3-2.5,0.7-3.7
			c0.6-1.7,5.3-16,7-16.9c0.7-0.4,3,3.6,3.3,4.1c1.7,2.5,5.3,7.6,8.5,7.9"/>
	</g>
</g>
<g id="Layer-1-copy" vectornator:layerName="Layer 1 copy">
</g>
</svg>
