<?xml version="1.0" encoding="utf-8"?>
<!-- Generator: Adobe Illustrator 28.3.0, SVG Export Plug-In . SVG Version: 6.00 Build 0)  -->
<svg version="1.1" id="Layer_4" xmlns="http://www.w3.org/2000/svg" xmlns:xlink="http://www.w3.org/1999/xlink" x="0px" y="0px"
	 viewBox="0 0 1920 1080" style="enable-background:new 0 0 1920 1080;" xml:space="preserve">
<style type="text/css">
	.st0{fill:url(#SVGID_1_);}
	.st1{fill:#FFFF6E;}
	.st2{fill:#CFCF57;}
</style>
<radialGradient id="SVGID_1_" cx="960" cy="540" r="778.8453" gradientUnits="userSpaceOnUse">
	<stop  offset="0" style="stop-color:#FCFABB"/>
	<stop  offset="1" style="stop-color:#BCF9FD"/>
</radialGradient>
<rect x="0" class="st0" width="1920" height="1080"/>
<circle class="st1" cx="999" cy="531" r="486"/>
<path class="st1" d="M587.3,84c-8,6.1-15.5,12.9-22.8,19.8c-12.8,12.2-25.6,24.4-37.7,37.4c-9.9,10.6-19.2,21.8-28.4,33
	c-8.7,10.8-17.3,21.8-24.9,33.4c-11.6,17.7-21,36.7-30.2,55.8c-11.7,25-24.2,49.8-32.4,76.2c-9,29.7-13,60.6-15.6,91.4
	c-1.5,18-2.6,36.1-3.5,54.2c0,0.9-0.1,1.8-0.1,2.6c0.6-2.4,1.3-4.8,1.9-7.1c7.2-25.9,15.3-51.6,24.2-77
	c6.8-19.6,19.4-51.9,22.8-59.4c5.5-13.3,12.1-28.3,24.7-55.3c8.9-18.9,17.8-37.8,28.4-55.8c10-16.8,21.5-32.6,32.1-48.9
	c13.5-20.7,26.8-41.5,40.9-61.9c6.9-10.1,16.2-23.9,22.2-31.3c5.8-7.3,12.4-14,18.8-20.8C600.8,74.6,593.9,79,587.3,84z"/>
<path class="st1" d="M376.2,836.7c-11.9-27.1-23.2-54.4-33.3-82.3c-7.4-20.3-13.5-41.1-19.1-61.9c-6.8-24.4-12.7-49-16.6-74
	c-0.6-4.3-2.9-17.9-4-39.5c-0.9-22.8-0.2-45.7,0.8-68.6c1.5-33.1,2.9-66.2,4.9-99.2c1.8-27.1,2.9-51.7,9.6-77.4
	c-12.3,25.1-19.3,52.4-25.6,79.5c-7.1,31.7-12.9,63.7-15.2,96.1c-2.1,31.9-3.7,64.1-0.5,96c3.9,35.8,11.6,71.5,24.2,105.3
	c10.5,27.9,24.8,54.1,40.9,79.1c12.6,19.6,25.6,38.9,38.9,58C379.5,844.1,377.9,840.4,376.2,836.7z"/>
<path class="st1" d="M609.5,993.3c-15.9-13-30.9-27.2-45.4-41.8c-36.7-37.2-51.7-58.9-81.8-103c-14.6-21.6-29-43.5-40.3-67.1
	c-6.9-14.4-12.4-26.3-14.9-42.9c-1.1,14.9,1.9,29.6,5.9,43.8c5.9,22.5,14.8,44,25.2,64.8c16.7,34.3,38.9,66.1,67.9,91.2
	c15.2,13,31.8,24.5,48.6,35.3c12,7.7,24.4,14.9,37,21.5C611,994.6,610.2,993.9,609.5,993.3z"/>
<path class="st1" d="M230.2,52.2c-12.5,15.9-23.1,33.2-32.3,51.2c-11.2,22.1-20.6,45.1-27.3,68.9c-9.7,36.5-13.9,74.2-15.9,111.8
	c-0.9,17.7-1.6,35.4-1.8,53.1c0,0.6,0,1.3,0,1.9c0.2-0.9,0.4-1.8,0.6-2.7c4.4-21,8.8-42,13.5-63c8.9-41.9,19.6-83.2,32.6-124
	c9.9-30.5,18-51.6,28.8-74.5c9.6-20.2,20.5-39.6,35.3-55.5C250.8,28.6,239.7,39.7,230.2,52.2z"/>
<path class="st1" d="M275.4,949.1c-14.8-17.5-28-34-40.4-50.1c-8.4-10.8-26-35.6-36.1-52.4c-13.3-22.1-25.8-44.7-38.2-67.4
	c-13.6-25.1-24.5-49.6-31.8-68.1c-8.6-21.2-16-42.9-19-65.7c-1.2,19.6,1,39.1,5.1,58.2c3.7,17.6,8.4,35,14.2,51.9
	c15.2,42.5,37.5,82.3,66.2,117.2c15.1,18.2,32.1,34.6,49.5,50.5c10.6,9.5,21.4,18.9,32.4,28C276.7,950.5,276,949.8,275.4,949.1z"/>
<g>
	<path class="st1" d="M1540.2,183.1c-0.3-0.6-0.5-1.3-0.8-1.9c-0.1-0.3-0.3-0.6-0.4-0.9C1539.4,181.2,1539.8,182.2,1540.2,183.1z"/>
	<path class="st1" d="M1592.7,321.4c-1.5-31.3-4.6-62.8-12-93.3c-8.4-32-20.9-63-38.1-91.3c-22.8-37.2-52.3-72.1-91.7-92.1
		c31.4,25.1,49.7,56.2,68.3,92.5c8.9,17.4,15.1,31.8,20.2,44c0.3,0.8,0.7,1.6,1,2.4c14.8,35.1,25.4,71.8,34.2,108.8
		c6.9,29.6,13.5,59.3,18.5,89.3c0.3,1.6,0.5,3.1,0.8,4.7C1594.2,364.7,1593.8,343.1,1592.7,321.4z"/>
</g>
<path class="st1" d="M1705.2,583.8c-8.6,24.5-17.9,46.6-25.5,64.7c-7.5,17-15,38.3-30.2,69.2c-25.7,50.7-58.9,96.9-88.8,145.1
	c-13.4,21.1-26.6,42.4-40.2,63.3c-1.2,1.8-2.4,3.6-3.6,5.5c13.4-14.4,26.7-28.9,39.7-43.7c23-26.3,45.7-53,65.6-81.6
	c15.5-22.7,29.6-46.4,42.6-70.7c9.8-18.6,17-35.2,22.3-48.3c11.5-29.4,21.5-59.4,27.9-90.3c5.1-24,7-48.4,9.3-72.8
	C1717.7,543.9,1712.2,564.1,1705.2,583.8z"/>
<path class="st1" d="M1875.3,388.9c-2.4-29.2-6-58.3-12.1-86.9c-6.8-30.3-16.2-60-26.7-89.2c-10-27-21.2-53.6-34.8-79
	c-11.1-20.9-23.9-40.8-37.7-60c-11.2-15.6-23-30.7-36.2-44.6c-15.8-16.4-33-31.4-51.2-45.1c17.8,21.2,31.5,37.7,46.3,60.1
	c18.7,28.7,34.7,59,51.5,88.9c23,42.5,35.5,75.1,51.5,122.8c11.7,36.7,21.1,74,30.3,111.4c7.8,31.1,15.5,62.3,22.4,93.6
	c0.5,2.2,1,4.4,1.4,6.6C1878.9,441.2,1877.4,415,1875.3,388.9z"/>
<path class="st1" d="M1723.6,929.5c0.5-0.7,1.1-1.4,1.6-2.1c-9.8,12.9-20.2,25.4-34.3,42.6c-23.8,29.8-44.7,56.5-73.3,89.3
	c-9.4,10.8-18.8,21.6-28.4,32.2c-0.4,0.4-0.8,0.8-1.1,1.3c0.5-0.4,1.1-0.8,1.7-1.2c9.3-6.9,18.7-13.9,27.9-21
	c22.3-17.2,44.9-34.3,65-54c20.8-20,38.8-42.9,53.8-67.5c18.5-30.9,30.5-65.2,41.3-99.4C1760.4,876.7,1742.8,903.7,1723.6,929.5z"/>
<path class="st2" d="M742.3,812.6c-13.1-20.5-24.7-41.9-35-63.9c-14.8-32.2-14.6-32.9-19.6-44.5c-6.8-16.2-12.7-32.8-17.6-49.7
	c-8.8-31.6-10.1-46.8-13.2-74.2c-1.8-16.3-3.2-32.7-3.7-49.1c-0.4-24.3,1.1-48.5,3.1-72.7c1-11.7,2.2-23.4,3.4-35.1
	c-2.1,7.2-4.2,14.4-6.2,21.6c-9.8,35.7-23.3,77.3-25.8,104.6c-2.2,19.5-1.1,39.3,1.8,58.7c3.9,29.7,12.3,58.6,22.7,86.7
	c9.9,26.7,21.9,52.7,37.7,76.5c22.1,33.3,51.1,61.6,83.5,84.8C762.1,842.7,752.1,828.4,742.3,812.6z"/>
<path class="st2" d="M1397.2,513.1c-0.8-16.9-3.4-33.7-6.3-50.4c-6.7-38.2-20.3-75-37.5-109.7c-22.8-47.1-54-90.8-95.2-123.5
	c-28.8-23-62.3-39.8-97.6-50.2c-21.9-6.4-44.5-9.7-66.7-14.8c23,12.9,46.4,25.3,68.7,39.4c27.3,17.9,36,24.9,59.5,44.6
	c15.3,12.6,30,26.1,43.2,40.9c20.9,23.1,34.7,43.8,53.1,79.2c22.6,43.1,37.1,85.6,45.6,142.9c1.3,9.3,4.8,28,5.9,54.1
	c0.7,17.9-0.5,35.9-1.9,53.8c-1.6,16.7-5.1,34-8.6,50.9c3.8-9.5,7.5-19.2,11-28.8c3-8.3,5.7-15.8,8.9-24c3.3-8.6,6.8-17.2,9.1-26.1
	C1395.2,565.9,1397.8,539.4,1397.2,513.1z"/>
</svg>
