<?xml version="1.0" encoding="utf-8"?>
<!-- Generator: Adobe Illustrator 28.3.0, SVG Export Plug-In . SVG Version: 6.00 Build 0)  -->
<svg version="1.1" id="Layer_1" xmlns:vectornator="http://vectornator.io"
	 xmlns="http://www.w3.org/2000/svg" xmlns:xlink="http://www.w3.org/1999/xlink" x="0px" y="0px" viewBox="0 0 612 792"
	 style="enable-background:new 0 0 612 792;" xml:space="preserve">
<style type="text/css">
	.st0{fill:#A4E0F9;stroke:#414F62;stroke-width:4.2925;stroke-linecap:round;stroke-linejoin:round;stroke-miterlimit:5.1256;}
	.st1{filter:url(#Filter);}
	.st2{fill:#D5694F;}
	.st3{fill:none;stroke:#D5694F;stroke-width:12.4504;stroke-linejoin:round;stroke-miterlimit:5.1256;}
	.st4{filter:url(#Filter_2);}
	.st5{fill:#FFFFFF;stroke:#224767;stroke-width:5.1256;stroke-linecap:round;stroke-linejoin:round;stroke-miterlimit:5.1256;}
	.st6{fill:#FFFFFF;stroke:#224767;stroke-width:6.7465;stroke-linecap:round;stroke-linejoin:round;stroke-miterlimit:5.1256;}
	.st7{stroke:#000000;stroke-width:6.6709;stroke-linejoin:round;stroke-miterlimit:5.1256;}
	.st8{stroke:#000000;stroke-width:8.7804;stroke-linejoin:round;stroke-miterlimit:5.1256;}
	.st9{fill:#FFFCEF;}
	.st10{opacity:0.6288;fill:#FFFCEF;enable-background:new    ;}
	.st11{fill:#224767;}
	.st12{fill:#EEF2F5;}
	.st13{fill:none;stroke:#224767;stroke-width:4.5469;stroke-linecap:round;stroke-linejoin:round;stroke-miterlimit:5.1256;}
	
		.st14{fill:#DAE5EE;stroke:#CDDCE9;stroke-width:4.5469;stroke-linecap:round;stroke-linejoin:round;stroke-miterlimit:5.1256;stroke-opacity:0.8664;}
	.st15{opacity:0.6519;}
	.st16{fill:none;stroke:#414F62;stroke-width:1.081;stroke-linecap:round;stroke-linejoin:round;stroke-miterlimit:5.1256;}
</style>
<filter  color-interpolation-filters="sRGB" filterUnits="userSpaceOnUse" height="97.265" id="Filter_2" width="135.483" x="317.312" y="465.006">
	<feGaussianBlur  in="SourceGraphic" result="Blur" stdDeviation="13.8566"></feGaussianBlur>
</filter>
<filter  color-interpolation-filters="sRGB" filterUnits="userSpaceOnUse" height="97.265" id="Filter" width="135.483" x="623.937" y="487.484">
	<feGaussianBlur  in="SourceGraphic" result="Blur" stdDeviation="13.8566"></feGaussianBlur>
</filter>
<g id="Layer-2" vectornator:layerName="Layer 2">
	<path vectornator:layerName="Curve 1" class="st0" d="M144.7,431.4c-10-43.2,47.8-121,79.7-134.6c8.5-3.7,14.9,24.3,21.4,17.7
		c90.7-90.7,64.6,10,105.8,10c8.3,0,10.5-15,26.5-9.7c26.1,8.7,52.5,98.4,46.2,123.6c-35.3,141.4-270.2,107.2-278.9-6.4"/>
	<g vectornator:blur="27.7132" vectornator:layerName="Oval 7" class="st1">
		<path class="st2" d="M343.8,457.1c0-0.5,4.8-0.9,10.7-0.9s10.7,0.4,10.7,0.9c0,0.5-4.8,0.9-10.7,0.9S343.8,457.6,343.8,457.1z"/>
		<path class="st3" d="M343.8,457.1c0-0.5,4.8-0.9,10.7-0.9s10.7,0.4,10.7,0.9c0,0.5-4.8,0.9-10.7,0.9S343.8,457.6,343.8,457.1z"/>
	</g>
	<g vectornator:blur="27.7132" vectornator:layerName="Oval 8" class="st4">
		<path class="st2" d="M186.6,445.5c0-0.5,4.8-0.9,10.7-0.9c5.9,0,10.7,0.4,10.7,0.9c0,0.5-4.8,0.9-10.7,0.9
			C191.4,446.5,186.6,446.1,186.6,445.5z"/>
		<path class="st3" d="M186.6,445.5c0-0.5,4.8-0.9,10.7-0.9c5.9,0,10.7,0.4,10.7,0.9c0,0.5-4.8,0.9-10.7,0.9
			C191.4,446.5,186.6,446.1,186.6,445.5z"/>
	</g>
	<path vectornator:layerName="Curve 13" class="st5" d="M195.2,433.4c-15.6-35.1-11.4-21.8,25.3-23.5c48.7-2.3,74.4-5.6,34.1,34.7"
		/>
	<path vectornator:layerName="Curve 11" class="st6" d="M362.9,459.6c37-34.5,25.1-20.6-18.5-41.5c-57.8-27.8-87.2-45.1-59.2,24.5"
		/>
	<path vectornator:layerName="Oval 9" class="st7" d="M212.3,424.6c0-7.8-1.4-7.9,5.5-10.5c2-0.7,13.6,0,15.8,0
		c10.1,0,15.2,0.4,15.2,10.5c0,10.1-8.2,13.6-18.3,13.6C220.5,438.2,212.3,434.7,212.3,424.6z"/>
	<path vectornator:layerName="Oval 3" class="st8" d="M346.7,440.1c4-9.5,5.8-8.8-1.2-15.5c-2-1.9-16.5-7-19.2-8.2
		c-12.2-5.2-18.6-7.3-23.8,4.9c-5.2,12.2,2.9,20.7,15.1,25.9C329.8,452.4,341.5,452.3,346.7,440.1z"/>
	<path vectornator:layerName="Oval 10" class="st9" d="M212,430c0-3.2,2.6-5.8,5.8-5.8c3.2,0,5.8,2.6,5.8,5.8c0,3.2-2.6,5.8-5.8,5.8
		C214.6,435.8,212,433.2,212,430z"/>
	<path vectornator:layerName="Oval 5" class="st9" d="M344.3,446.7c1.6-3.9-0.2-8.4-4-10s-8.4,0.2-10,4c-1.6,3.9,0.2,8.4,4,10
		S342.6,450.6,344.3,446.7z"/>
	<path vectornator:layerName="Oval 11" class="st10" d="M230.5,432.4c0-3.2,2.6-5.8,5.8-5.8c3.2,0,5.8,2.6,5.8,5.8
		c0,3.2-2.6,5.8-5.8,5.8C233.1,438.2,230.5,435.6,230.5,432.4z"/>
	<path vectornator:layerName="Oval 6" class="st10" d="M320.6,440.2c1.6-3.9-0.2-8.4-4-10c-3.9-1.6-8.4,0.2-10,4
		c-1.6,3.9,0.2,8.4,4,10C314.5,445.9,319,444.1,320.6,440.2z"/>
	<g vectornator:layerName="Curve 14">
		<path class="st11" d="M242.2,355.2c-1.5-0.2-2.8,0.4-3.3,1.4c-1.6,2-3.2,3.8-5,5.7c-0.5,0.5-1,1-1.4,1.5c-0.5,0.5-1,0.8-1.5,1.3
			c-0.9,0.8-1.8,1.6-2.8,2.3c-1.6,1.1-3.4,2.1-5.3,2.8c-2.5,1-5,1.8-7.6,2.5c-1,0.3-2,0.6-2.9,0.8c-1.2,0.3-2.3,0.6-3.5,1
			c-1.9,0.7-3.6,1.7-5.2,3c-0.2,0.2-0.1,0.6,0.3,0.9s0.7,0.3,0.9,0.1c2.1-1.7,4.6-2.8,7.2-3.3c0.7-0.1,1.3-0.2,2-0.2
			c1.2-0.1,2.4-0.2,3.7-0.3c2.3-0.2,4.6-0.6,6.9-1.2c3.2-0.8,6.3-2,9.1-3.5c1-0.5,2-1.2,2.9-1.8c0.9-0.5,1.7-1.1,2.5-1.7
			c2.7-2,5-4.4,7.3-6.8c0.5-1.4-0.8-3.2-2.9-4C243.3,355.4,242.7,355.3,242.2,355.2z"/>
	</g>
	<g vectornator:layerName="Curve 4">
		<path class="st11" d="M307.7,363.6c-1.2,0.1-2.6,0.5-3.9,1.4c-2.5,1.8-3.7,4.6-2.5,6.2c2.1,2.2,4.3,4.4,6.9,6.1
			c0.9,0.7,2,1.2,3,1.7c0.5,0.3,1.1,0.7,1.6,1c0.9,0.5,1.9,0.8,2.8,1.2c2.5,1,5.1,1.8,7.8,2.3c2.4,0.5,4.7,0.8,7.1,1
			c1.3,0.1,2.6,0.2,3.9,0.3c0.4,0,1,0.1,1.5,0.2c2.8,0.5,5.5,1.7,7.7,3.5c0.3,0.3,0.8,0.2,1.3-0.1c0.5-0.4,0.7-1,0.4-1.3
			c-1.5-1.2-3-2.1-4.8-2.8c-1.1-0.4-2.2-0.6-3.4-0.9c-1.4-0.4-2.7-0.9-4.1-1.3c-2.2-0.7-4.4-1.4-6.4-2.5c-1.8-0.9-3.6-2-5.2-3.3
			c-0.8-0.6-1.5-1.3-2.2-2c-0.4-0.4-0.9-0.7-1.2-1.1c-0.7-0.7-1.3-1.5-1.9-2.2c-1.9-2.1-3.7-4.1-5.4-6.3
			C310,363.9,308.9,363.6,307.7,363.6z"/>
	</g>
	<g vectornator:layerName="Curve 9">
		<path class="st12" d="M216.7,308.9c-0.8-0.1-1.6,0.2-2,0.7c-5.1,4.6-10.2,9.1-15.1,14c-1.8,1.8-3.6,3.8-5.3,5.7
			c-1.3,1.4-2.6,2.7-3.8,4.1c-2.3,2.6-4.4,5.3-6.5,8c-4.9,6.4-9.4,13.1-13.2,20.2c-2,3.8-3.8,7.7-5.4,11.7c-0.5,1.2-0.9,2.4-1.3,3.6
			c-1,2.6-2,5.2-2.9,7.9c-1.3,4.1-2.3,8.2-3.2,12.4c0.1,0.4,0.6,0.6,1.1,0.5c0.6-0.1,1-0.5,0.9-0.8c1-4.9,2.3-9.7,3.9-14.4
			c0.6-1.9,1.3-3.8,2.1-5.7c1.8-4.2,4-8.2,6.4-12.1c4.6-7.6,10.1-14.6,16.1-21.1c2.7-2.9,5.5-5.6,8.3-8.3c1.2-1.1,2.3-2.3,3.5-3.4
			c1.5-1.3,3-2.6,4.5-3.9c5.3-4.7,10.6-9.3,16-13.8c0.8-1.1,0.2-3-1.5-4.3C218.5,309.3,217.6,309,216.7,308.9z"/>
	</g>
	<g vectornator:layerName="Curve 10">
		<path class="st12" d="M407.4,441.4c-2.7,0.1-4.9,1.6-4.8,3.3c-1.6,4.2-3.5,8.3-5.7,12.3c-1.9,3.6-4.1,7.1-6.3,10.4
			c-0.9,1.3-1.8,2.7-2.7,4c-1.4,2-3,3.8-4.6,5.7c-2.6,3.1-5.4,6.2-8.4,9c-7.5,7.1-16,13.1-25.1,17.9c-4.4,2.3-9,4.4-13.7,6
			c-2.3,0.8-4.6,1.4-6.9,2c-5.8,1.5-11.6,2.5-17.5,3c-0.3-0.1-0.7,0.2-0.8,0.7c-0.2,0.5,0,0.9,0.3,1c5.4-0.5,10.7-1.4,16-2.6
			c3-0.7,6-1.6,9-2.6c5.5-1.7,11-3.7,16.2-6.1c9.6-4.5,18.7-10.2,26.9-17c2.5-2,4.9-4.2,7.2-6.4c1.5-1.4,3-2.9,4.4-4.4
			c1.1-1.2,2.1-2.4,3.2-3.6c2-2.3,3.9-4.6,5.7-7c5.1-7,9.3-14.7,12.7-22.7C412.4,442.7,410.1,441.3,407.4,441.4z"/>
	</g>
	<path vectornator:layerName="Curve 15" class="st13" d="M227,481.5c33.1,0,57.1,0.2,87.6,15.4"/>
	<path vectornator:layerName="Curve 17" class="st14" d="M198.5,435.1c-1.9-1-4.2-2.7-6.5-2c-6.4,2-9.4,12.4-2.6,15.9
		c3.9,2,6.5-3.8,10.5-3.9c3.3,0,5.8,2.9,8.9,2.9c2.9,0,4.8-3,7.5-3.5c2.8-0.6,5.5,0.8,8.3,0.8c1.9,0,3.6-1.1,5.5-1.1
		c2.6,0,4.6,1.8,6.8,3c3.1,1.6,6.2,2.3,9.7,1.8c1.9-0.3,5.7-2.4,5.5-4.8c-0.2-2-5.8-1.4-6.8-1.3c-2.4,0.2-5.9,1.4-8.3,0.6
		c-2.5-0.8-4.4-2.3-7.1-2.4c-2.4-0.1-4.7,0.7-7.1,0.8c-2.2,0-3.7-2.1-5.7-2.7c-3.7-1-7.9,0.5-11.4-0.7c-1.4-0.5-2.6-1.9-4.1-2.5
		c-2.2-0.9-5.9-2.8-7.3-0.1"/>
	<path vectornator:layerName="Curve 18" class="st14" d="M319.1,451.5c-0.7-0.7-0.6-1.5-1.4-2.2c-1.6-1.2-4.9-1.4-6.8-1.1
		c-4,0.6-4.1,4.4-0.9,6.3c2.2,1.3,5.1-0.2,7.2,1.1c2.4,1.4,5.4,2.3,7.5,4c1.1,0.8,1.6,2.3,3.1,2.5c2.6,0.4,4.4-2.1,7.2-1.6
		c2.8,0.5,3.6,3.8,6.8,3.2c1.4-0.2,3.8-3.1,5.8-3.8c0.9-0.3,2.4-0.3,3.4-0.2c1.4,0.2,6.4,4.5,7,0.2c0.5-3.5-4.4-3.7-6.6-4
		c-3.4-0.4-6.4,1.3-9.7,0.9c-1.8-0.2-3.4-1.5-5.2-1.8c-2.7-0.5-5.8,0.2-8.4,0.2c-3.4,0-2.8-4-5.4-5c-1.3-0.5-3.2-0.6-4.7-0.9
		c-0.7-0.1-3.6-1-4-0.4"/>
</g>
<g id="Layer-1" vectornator:layerName="Layer 1">
	<g vectornator:layerName="Group 1" class="st15">
		<path vectornator:layerName="Curve 1" class="st16" d="M199.6,447.4l0.2-0.1l0.2-0.1l0.2-0.1h0.2l0.3-0.1l0.3-0.1h0.6l0.3-0.1h0.2
			h0.3l-0.3,0.2l-0.3,0.1l-0.2,0.1h-0.3l-0.2,0.1h-0.3l-0.5,0.1h-0.2h-0.3l-0.1-0.2l0.2-0.1l0.2-0.1l0.2-0.1l0.5-0.1h0.3l0.2-0.1
			h0.2h0.2h0.2l0.2,0.1l-0.1,0.2l-0.2,0.1l-0.2,0.1l-0.3,0.1l-0.2,0.1l-0.3,0.1h-0.2l-0.2,0.1h-0.2h-0.2l-0.1-0.2v-0.2l0.3-0.1
			l0.2-0.1l0.2-0.1h0.3l0.3-0.1h0.2h0.3h0.3h0.2h0.2h0.2l-0.1,0.2h-0.2l-0.3,0.1l-0.3,0.1h-0.3l-0.3,0.1H201h-0.3h-0.3H200"/>
		<path vectornator:layerName="Curve 2" class="st16" d="M208.2,450h1.8"/>
		<path vectornator:layerName="Curve 3" class="st16" d="M223.5,447.1l0.2-0.2l0.2-0.1h0.2l0.3-0.1h0.2h0.3h0.3h0.3l0.2,0.1l0.1,0.2
			l-0.5,0.2l-0.3,0.1H225h-0.5h-0.3h-0.3h-0.5h-0.2v-0.2l0.3-0.2l0.3-0.1l0.3-0.1h0.5l0.5-0.1h0.3h0.3h0.3h0.2l0.1,0.2l-0.3,0.2
			l-0.3,0.1l-0.3,0.2l-0.5,0.1h-0.5l-0.5,0.1h-0.3h-0.3h-0.2h-0.2l-0.1-0.2l0.1-0.2l0.2-0.1l0.3-0.1l0.3-0.2h0.5l0.5-0.1h0.3
			l0.5-0.1h0.3l0.3,0.1l0.2,0.1v0.2l-0.5,0.2l-0.5,0.2l-0.5,0.1l-0.5,0.1h-0.5l-0.5,0.1h-0.3h-0.2l-0.2-0.1l-0.2-0.3l0.1-0.3
			l0.2-0.1l0.3-0.1l0.6-0.1l0.6-0.1h0.5"/>
		<path vectornator:layerName="Curve 4" class="st16" d="M211.8,457.2l-0.2-0.1l0.1,0.2h0.2l0.3,0.1h0.2h0.3l0.1-0.2h-0.2l-0.2-0.1
			h-0.2l-0.3-0.1h-0.2h-0.2h-0.2l-0.1,0.2"/>
		<path vectornator:layerName="Curve 5" class="st16" d="M223.6,455.6c0.4,0,0.8,0,1.3,0"/>
		<path vectornator:layerName="Curve 14" class="st16" d="M201.1,454.5v-0.3l0.2-0.1h0.2v0.2l-0.1,0.2l-0.3,0.2l-0.2,0.1l0.3-0.1
			l0.5-0.1h0.2l-0.2,0.1l-0.2,0.1l-0.3,0.1l-0.6,0.2h-0.2H200"/>
		<path vectornator:layerName="Curve 15" class="st16" d="M201.3,454.7l0.2-0.2l0.2-0.3v-0.2l-0.3-0.1l-0.5,0.1l-0.2,0.1l-0.2,0.1
			l-0.2,0.1l-0.2,0.2v0.3h0.2h0.2l0.3,0.1h0.3h0.3l0.3-0.1l0.2-0.1l0.2-0.1l0.1-0.2l-0.2-0.1l-0.3-0.1h-0.3h-0.5h-0.3l-0.5,0.1
			l-0.5,0.1l-0.3,0.1l-0.3,0.1l-0.2,0.2l0.1,0.2h0.3h0.2"/>
		<path vectornator:layerName="Curve 16" class="st16" d="M217.3,442l-0.3-0.1h-0.4l-0.4,0.3l-0.3,0.3l0.4,0.1h0.4h0.7h0.3l0.3-0.1
			l0.1-0.3l-0.3-0.3h-0.3h-0.7h-0.6L216,442l-0.1,0.3"/>
		<path vectornator:layerName="Curve 17" class="st16" d="M218,459.5l-1.3,0.6"/>
		<path vectornator:layerName="Curve 18" class="st16" d="M193.5,449.2h-0.3H193l-0.1,0.3l0.3,0.1h0.4h0.3h0.3l0.4-0.1l0.1-0.3h-0.4
			h-0.4H193.5h-0.3H193l-0.3,0.1"/>
		<path vectornator:layerName="Curve 19" class="st16" d="M208.4,442l-1.4,0.1"/>
		<path vectornator:layerName="Curve 20" class="st16" d="M205.4,461.1L204,461"/>
		<path vectornator:layerName="Curve 21" class="st16" d="M211.3,465.2l-1.5,0.7"/>
		<path vectornator:layerName="Curve 22" class="st16" d="M224.7,463.5c-0.1,0-0.3,0-0.4,0"/>
		<path vectornator:layerName="Curve 23" class="st16" d="M236.3,450.6l-1.7,0.1"/>
		<path vectornator:layerName="Curve 24" class="st16" d="M232.5,443c0-0.1,0-0.2,0-0.3"/>
		<path vectornator:layerName="Curve 25" class="st16" d="M216.9,450.8c-0.2,0-0.5,0-0.7,0"/>
		<path vectornator:layerName="Curve 26" class="st16" d="M225.7,441.8c0-0.1-0.1-0.2-0.1-0.3"/>
	</g>
	<g vectornator:layerName="Group 1" class="st15">
		<path vectornator:layerName="Curve 1" class="st16" d="M352.6,459.6l-0.2-0.1l-0.2-0.1l-0.2-0.1h-0.2l-0.3-0.1L351,459h-0.6
			l-0.3-0.1h-0.2h-0.3l0.3,0.2l0.3,0.1l0.2,0.1h0.3l0.2,0.1h0.3l0.5,0.1h0.2h0.3l0.1-0.2l-0.2-0.1l-0.2-0.1l-0.2-0.1l-0.5-0.1H351
			l-0.2-0.1h-0.2h-0.2h-0.2l-0.2,0.1l0.1,0.2l0.2,0.1l0.2,0.1l0.3,0.1l0.2,0.1l0.3,0.1h0.2l0.2,0.1h0.2h0.2l0.1-0.2v-0.2l-0.3-0.1
			l-0.2-0.1l-0.2-0.1h-0.3l-0.3-0.1h-0.2h-0.3H350h-0.2h-0.2h-0.2l0.1,0.2h0.2l0.3,0.1l0.3,0.1h0.3l0.3,0.1h0.2h0.3h0.3h0.2"/>
		<path vectornator:layerName="Curve 2" class="st16" d="M344,462.1h-1.8"/>
		<path vectornator:layerName="Curve 3" class="st16" d="M328.7,459.3l-0.2-0.2l-0.2-0.1H328l-0.3-0.1h-0.2h-0.3h-0.3h-0.3l-0.2,0.1
			l-0.1,0.2l0.5,0.2l0.3,0.1h0.3h0.5h0.3h0.3h0.5h0.2v-0.2l-0.3-0.2l-0.3-0.1l-0.3-0.1h-0.5l-0.5-0.1h-0.3h-0.3H326h-0.2l-0.1,0.2
			l0.3,0.2l0.3,0.1l0.3,0.2l0.5,0.1h0.5l0.5,0.1h0.3h0.3h0.2h0.2l0.1-0.2l-0.1-0.2l-0.2-0.1l-0.3-0.1l-0.3-0.2h-0.5l-0.5-0.1h-0.3
			l-0.5-0.1h-0.3l-0.3,0.1l-0.2,0.1v0.2l0.5,0.2l0.5,0.2l0.5,0.1l0.5,0.1h0.5l0.5,0.1h0.3h0.2l0.2-0.1l0.2-0.3l-0.1-0.3l-0.2-0.1
			l-0.3-0.1l-0.6-0.1l-0.6-0.1h-0.5"/>
		<path vectornator:layerName="Curve 4" class="st16" d="M340.4,469.4l0.2-0.1l-0.1,0.2h-0.2l-0.3,0.1h-0.2h-0.3l-0.1-0.2h0.2
			l0.2-0.1h0.2l0.3-0.1h0.2h0.2h0.2l0.1,0.2"/>
		<path vectornator:layerName="Curve 5" class="st16" d="M328.6,467.8c-0.4,0-0.8,0-1.3,0"/>
		<path vectornator:layerName="Curve 14" class="st16" d="M351.1,466.6v-0.3l-0.2-0.1h-0.2v0.2l0.1,0.2l0.3,0.2l0.2,0.1l-0.3-0.1
			l-0.5-0.1h-0.2l0.2,0.1l0.2,0.1l0.3,0.1l0.6,0.2h0.2h0.2"/>
		<path vectornator:layerName="Curve 15" class="st16" d="M350.9,466.9l-0.2-0.2l-0.2-0.3V466l0.3-0.1l0.5,0.1l0.2,0.1l0.2,0.1
			l0.2,0.1l0.2,0.2v0.3h-0.2h-0.2l-0.3,0.1H351h-0.3l-0.3-0.1l-0.2-0.1l-0.2-0.1l-0.1-0.2l0.2-0.1l0.3-0.1h0.3h0.5h0.3l0.5,0.1
			l0.5,0.1l0.3,0.1l0.3,0.1l0.2,0.2l-0.1,0.2h-0.3h-0.2"/>
		<path vectornator:layerName="Curve 16" class="st16" d="M334.9,454.1l0.3-0.1h0.4l0.4,0.3l0.3,0.3l-0.4,0.1h-0.4h-0.7h-0.3
			l-0.3-0.1l-0.1-0.3l0.3-0.3h0.3h0.7h0.6l0.3,0.1l0.1,0.3"/>
		<path vectornator:layerName="Curve 17" class="st16" d="M334.2,471.6l1.3,0.6"/>
		<path vectornator:layerName="Curve 18" class="st16" d="M358.7,461.4h0.3h0.3l0.1,0.3l-0.3,0.1h-0.4h-0.3h-0.3l-0.4-0.1l-0.1-0.3
			h0.4h0.4H358.7h0.3h0.3l0.3,0.1"/>
		<path vectornator:layerName="Curve 19" class="st16" d="M343.8,454.1l1.4,0.1"/>
		<path vectornator:layerName="Curve 20" class="st16" d="M346.8,473.3l1.4-0.1"/>
		<path vectornator:layerName="Curve 21" class="st16" d="M340.9,477.3l1.5,0.7"/>
		<path vectornator:layerName="Curve 22" class="st16" d="M327.5,475.7c0.1,0,0.3,0,0.4,0"/>
		<path vectornator:layerName="Curve 23" class="st16" d="M315.9,462.8l1.7,0.1"/>
		<path vectornator:layerName="Curve 24" class="st16" d="M319.7,455.1c0-0.1,0-0.2,0-0.3"/>
		<path vectornator:layerName="Curve 25" class="st16" d="M335.3,462.9c0.2,0,0.5,0,0.7,0"/>
		<path vectornator:layerName="Curve 26" class="st16" d="M326.5,454c0-0.1,0.1-0.2,0.1-0.3"/>
	</g>
</g>
<g id="Layer-1-copy" vectornator:layerName="Layer 1 copy">
</g>
</svg>
