<?xml version="1.0" encoding="UTF-8"?>
<svg id="Layer_1" data-name="Layer 1" xmlns="http://www.w3.org/2000/svg" xmlns:xlink="http://www.w3.org/1999/xlink" viewBox="0 0 612 792">
  <defs>
    <style>
      .cls-1, .cls-2 {
        stroke-width: 4.55px;
      }

      .cls-1, .cls-2, .cls-3, .cls-4, .cls-5, .cls-6, .cls-7, .cls-8, .cls-9 {
        stroke-linejoin: round;
      }

      .cls-1, .cls-2, .cls-4, .cls-5, .cls-6, .cls-9 {
        stroke-linecap: round;
      }

      .cls-1, .cls-4, .cls-8 {
        fill: none;
      }

      .cls-1, .cls-5, .cls-6 {
        stroke: #224767;
      }

      .cls-10, .cls-11 {
        fill: #fffcef;
      }

      .cls-10, .cls-11, .cls-12, .cls-13, .cls-14 {
        stroke-width: 0px;
      }

      .cls-11 {
        isolation: isolate;
        opacity: .63;
      }

      .cls-2 {
        fill: #dae5ee;
        stroke: rgba(205, 220, 233, .87);
      }

      .cls-15 {
        filter: url(#Filter);
      }

      .cls-3 {
        stroke-width: 6.67px;
      }

      .cls-3, .cls-7 {
        fill: #000;
        stroke: #000;
      }

      .cls-4 {
        stroke-width: 1.08px;
      }

      .cls-4, .cls-9 {
        stroke: #414f62;
      }

      .cls-5 {
        stroke-width: 6.75px;
      }

      .cls-5, .cls-6 {
        fill: #fff;
      }

      .cls-6 {
        stroke-width: 5.13px;
      }

      .cls-7 {
        stroke-width: 8.78px;
      }

      .cls-12 {
        fill: #eef2f5;
      }

      .cls-8 {
        stroke: #d5694f;
        stroke-width: 12.45px;
      }

      .cls-16 {
        opacity: .65;
      }

      .cls-13 {
        fill: #224767;
      }

      .cls-14 {
        fill: #d5694f;
      }

      .cls-9 {
        fill: #a4e0f9;
        stroke-width: 4.29px;
      }

      .cls-17 {
        filter: url(#Filter_2);
      }
    </style>
    <filter id="Filter" x="623.937" y="487.484" width="135.483" height="97.265">
      <feGaussianBlur in="SourceGraphic" result="Blur" stdDeviation="13.8566"/>
    </filter>
    <filter id="Filter_2" x="317.312" y="465.006" width="135.483" height="97.265">
      <feGaussianBlur in="SourceGraphic" result="Blur" stdDeviation="13.8566"/>
    </filter>
  </defs>
  <g id="Layer-2">
    <path class="cls-9" d="M167.98,431.41c-10.05-43.2,47.84-120.96,79.7-134.62,8.53-3.65,14.87,24.31,21.43,17.75,90.69-90.69,64.57,10.05,105.82,10.05,8.3,0,10.52-15.02,26.45-9.71,26.09,8.7,52.51,98.38,46.21,123.57-35.35,141.39-270.24,107.23-278.94-6.36"/>
    <g class="cls-15">
      <path class="cls-14" d="M367.11,457.05c0-.52,4.81-.95,10.74-.95s10.74.42,10.74.95-4.81.95-10.74.95-10.74-.42-10.74-.95Z"/>
      <path class="cls-8" d="M367.11,457.05c0-.52,4.81-.95,10.74-.95s10.74.42,10.74.95-4.81.95-10.74.95-10.74-.42-10.74-.95Z"/>
    </g>
    <g class="cls-17">
      <path class="cls-14" d="M209.95,445.53c0-.52,4.81-.95,10.74-.95s10.74.42,10.74.95-4.81.95-10.74.95-10.74-.42-10.74-.95Z"/>
      <path class="cls-8" d="M209.95,445.53c0-.52,4.81-.95,10.74-.95s10.74.42,10.74.95-4.81.95-10.74.95-10.74-.42-10.74-.95Z"/>
    </g>
    <path class="cls-6" d="M218.55,433.42c-15.58-35.13-11.41-21.84,25.26-23.55,48.7-2.27,74.39-5.6,34.08,34.72"/>
    <path class="cls-5" d="M386.17,459.57c36.98-34.52,25.07-20.57-18.46-41.54-57.82-27.84-87.21-45.11-59.16,24.48"/>
    <path class="cls-3" d="M250.48,425c0-7.83-1.44-7.91,5.49-10.5,1.99-.74,13.59,0,15.84,0,10.08,0,15.18.42,15.18,10.5s-8.17,13.59-18.26,13.59-18.26-3.5-18.26-13.59Z"/>
    <path class="cls-7" d="M387.98,446.74c4.04-9.49,5.82-8.84-1.24-15.55-2.03-1.93-16.46-7-19.19-8.16-12.21-5.2-18.6-7.32-23.8,4.89-5.2,12.21,2.9,20.67,15.11,25.87,12.21,5.2,23.92,5.17,29.11-7.05Z"/>
    <path class="cls-10" d="M269.62,433.3c0-3.2,2.59-5.79,5.79-5.79s5.79,2.59,5.79,5.79-2.59,5.79-5.79,5.79-5.79-2.59-5.79-5.79Z"/>
    <path class="cls-10" d="M385.59,453.36c1.65-3.87-.16-8.35-4.03-10-3.87-1.65-8.35.16-10,4.03-1.65,3.87.16,8.35,4.03,10,3.87,1.65,8.35-.16,10-4.03Z"/>
    <path class="cls-11" d="M275.41,419.96c0-3.2,2.59-5.79,5.79-5.79s5.79,2.59,5.79,5.79-2.59,5.79-5.79,5.79-5.79-2.59-5.79-5.79Z"/>
    <path class="cls-11" d="M392.74,436.83c1.65-3.87-.16-8.35-4.03-10-3.87-1.65-8.35.16-10,4.03-1.65,3.87.16,8.35,4.03,10,3.87,1.65,8.35-.16,10-4.03Z"/>
    <path class="cls-13" d="M265.54,355.2c-1.53-.16-2.85.37-3.25,1.41-1.57,1.97-3.23,3.84-4.98,5.65-.48.5-.95,1.03-1.44,1.52-.46.47-.99.85-1.49,1.27-.93.78-1.81,1.59-2.82,2.27-1.65,1.13-3.43,2.07-5.27,2.84-2.47,1.03-5.05,1.76-7.62,2.48-.98.27-1.95.59-2.93.85-1.17.31-2.32.58-3.46.99-1.9.69-3.61,1.67-5.16,2.96-.17.21-.05.6.27.87s.72.32.9.11c2.07-1.72,4.6-2.8,7.24-3.28.66-.12,1.35-.16,2.02-.22,1.22-.12,2.44-.21,3.67-.34,2.33-.24,4.64-.6,6.92-1.17,3.15-.79,6.26-1.98,9.15-3.49,1.03-.54,1.96-1.21,2.95-1.83.85-.53,1.69-1.06,2.5-1.67,2.66-2.01,5.04-4.38,7.29-6.84.54-1.38-.75-3.18-2.88-4-.53-.21-1.08-.33-1.59-.38Z"/>
    <path class="cls-13" d="M331.05,363.61c-1.21.05-2.59.53-3.86,1.43-2.53,1.8-3.65,4.6-2.48,6.25,2.1,2.23,4.33,4.38,6.86,6.13.95.66,1.97,1.17,2.96,1.75.55.32,1.07.68,1.63.98.91.48,1.88.83,2.83,1.2,2.52.98,5.1,1.76,7.75,2.29,2.35.47,4.74.76,7.13.96,1.3.11,2.61.2,3.91.32.42.04,1.04.09,1.46.16,2.8.5,5.48,1.68,7.66,3.49.26.31.84.25,1.31-.14s.66-.97.4-1.28c-1.45-1.21-3.04-2.14-4.82-2.79-1.11-.4-2.25-.63-3.38-.94-1.36-.38-2.71-.86-4.05-1.28-2.19-.69-4.37-1.44-6.44-2.45-1.84-.9-3.6-2-5.19-3.3-.78-.64-1.47-1.35-2.23-2.02-.41-.37-.85-.69-1.25-1.07-.7-.68-1.28-1.48-1.94-2.19-1.88-2.06-3.72-4.12-5.43-6.33-.58-.82-1.62-1.2-2.83-1.15Z"/>
    <path class="cls-12" d="M240.06,308.91c-.82-.06-1.55.17-1.97.72-5.13,4.55-10.23,9.13-15.09,13.98-1.85,1.85-3.57,3.79-5.35,5.7-1.27,1.36-2.56,2.7-3.78,4.1-2.27,2.6-4.42,5.31-6.54,8.04-4.93,6.38-9.44,13.11-13.23,20.23-2.02,3.79-3.82,7.7-5.4,11.69-.47,1.18-.87,2.38-1.33,3.56-1.02,2.62-2.01,5.23-2.87,7.91-1.3,4.07-2.33,8.21-3.19,12.4.06.37.57.6,1.14.5.57-.1.98-.48.91-.85,1-4.86,2.26-9.66,3.86-14.35.65-1.9,1.3-3.81,2.1-5.65,1.8-4.17,4.03-8.2,6.39-12.08,4.6-7.57,10.07-14.63,16.13-21.1,2.69-2.87,5.51-5.59,8.35-8.31,1.16-1.12,2.29-2.28,3.48-3.36,1.47-1.35,2.99-2.62,4.48-3.94,5.28-4.68,10.62-9.29,16.02-13.82.83-1.09.16-3.01-1.52-4.29-.84-.64-1.77-1.01-2.59-1.07Z"/>
    <path class="cls-12" d="M430.76,441.41c-2.7.08-4.86,1.56-4.81,3.32-1.65,4.21-3.52,8.33-5.65,12.32-1.92,3.59-4.07,7.06-6.33,10.44-.9,1.34-1.78,2.7-2.72,4-1.44,1.99-3.05,3.84-4.61,5.72-2.62,3.15-5.39,6.16-8.36,8.99-7.47,7.11-15.96,13.12-25.1,17.89-4.41,2.3-8.99,4.39-13.69,6.02-2.26.79-4.57,1.42-6.89,2.02-5.76,1.49-11.61,2.47-17.52,3.04-.31-.1-.68.22-.83.69-.15.47-.02.93.29,1.03,5.39-.52,10.72-1.37,15.99-2.63,3.05-.73,6.04-1.64,9.03-2.56,5.53-1.71,10.95-3.69,16.21-6.13,9.65-4.48,18.67-10.24,26.88-16.99,2.48-2.04,4.88-4.19,7.21-6.41,1.5-1.43,2.99-2.87,4.39-4.4,1.08-1.19,2.11-2.42,3.16-3.64,1.96-2.28,3.9-4.57,5.67-7,5.12-7.03,9.3-14.66,12.69-22.67-.05-1.76-2.28-3.12-4.98-3.04Z"/>
    <path class="cls-1" d="M250.36,481.49c33.05,0,57.06.15,87.57,15.41"/>
    <path class="cls-2" d="M221.8,435.07c-1.87-.97-4.19-2.7-6.5-1.97-6.37,2.02-9.45,12.38-2.64,15.91,3.94,2.04,6.5-3.83,10.48-3.86,3.34-.03,5.8,2.89,8.93,2.94,2.89.04,4.78-2.96,7.49-3.52,2.81-.58,5.53.81,8.33.85,1.94.03,3.6-1.12,5.47-1.13,2.56-.02,4.63,1.82,6.82,2.96,3.13,1.63,6.24,2.35,9.71,1.77,1.86-.31,5.66-2.42,5.46-4.78-.18-2-5.79-1.41-6.84-1.32-2.42.21-5.93,1.36-8.31.56-2.48-.83-4.41-2.3-7.14-2.42-2.36-.11-4.71.74-7.05.76-2.21.02-3.67-2.13-5.69-2.66-3.67-.96-7.9.55-11.4-.75-1.41-.52-2.6-1.9-4.07-2.52-2.17-.92-5.89-2.76-7.27-.09"/>
    <path class="cls-2" d="M342.44,451.45c-.66-.66-.61-1.53-1.44-2.16-1.62-1.22-4.85-1.36-6.83-1.08-4.02.57-4.1,4.37-.9,6.29,2.15,1.29,5.13-.15,7.19,1.08,2.35,1.41,5.38,2.33,7.55,3.95,1.05.79,1.64,2.31,3.06,2.52,2.63.38,4.41-2.08,7.19-1.62,2.79.47,3.57,3.78,6.83,3.23,1.44-.24,3.83-3.13,5.75-3.77.93-.31,2.45-.34,3.41-.18,1.44.24,6.38,4.55,7.01.18.49-3.46-4.36-3.7-6.65-3.95-3.36-.37-6.37,1.31-9.7.9-1.78-.22-3.4-1.5-5.21-1.8-2.7-.45-5.79.18-8.45.18-3.37,0-2.79-3.99-5.39-5.03-1.32-.53-3.25-.61-4.67-.9-.74-.15-3.61-1.04-3.95-.36"/>
  </g>
  <g id="Layer-1">
    <g class="cls-16">
      <path class="cls-4" d="M222.91,447.44l.23-.11.23-.12.23-.11h.23l.34-.12.35-.11h.58l.34-.12h.58l-.35.23-.34.12-.23.11h-.35l-.23.12h-.35l-.46.11h-.58l-.12-.23.23-.11.23-.12.23-.11.46-.12h.35l.23-.11h.69l.23.11-.11.23-.23.12-.23.11-.35.12-.23.11-.35.12h-.23l-.23.11h-.46l-.11-.23v-.23l.34-.11.23-.12.23-.11h.35l.34-.12h1.61l-.12.23h-.23l-.34.12-.35.11h-.35l-.34.12h-1.15"/>
      <path class="cls-4" d="M231.54,449.97h1.84"/>
      <path class="cls-4" d="M246.84,447.09l.23-.23.23-.12h.23l.35-.11h1.27l.23.11.12.23-.46.23-.35.12h-2.19v-.23l.34-.23.35-.12.34-.11h.46l.46-.12h1.27l.11.23-.34.23-.35.12-.34.23-.46.11h-.46l-.46.12h-1.15l-.12-.23.12-.23.23-.12.34-.11.35-.23h.46l.46-.12h.34l.46-.11h.35l.34.11.23.12v.23l-.46.23-.46.23-.46.11-.46.12h-.46l-.46.11h-.58l-.23-.11-.23-.35.11-.34.23-.12.35-.11.58-.12.58-.11h.46"/>
      <path class="cls-4" d="M235.11,457.22l-.23-.12.11.23h.23l.35.12h.58l.11-.23h-.23l-.23-.12h-.23l-.35-.11h-.69l-.11.23"/>
      <path class="cls-4" d="M246.96,455.61h1.27"/>
      <path class="cls-4" d="M224.4,454.46v-.35l.23-.11h.23v.23l-.11.23-.35.23-.23.11.35-.11.46-.12h.23l-.23.12-.23.11-.35.12-.58.23h-.46"/>
      <path class="cls-4" d="M224.63,454.69l.23-.23.23-.35v-.23l-.35-.11-.46.11-.23.12-.23.11-.23.12-.23.23v.34h.46l.34.12h.69l.35-.12.23-.11.23-.12.12-.23-.23-.11-.35-.12h-1.15l-.46.12-.46.11-.35.12-.34.11-.23.23.11.23h.58"/>
      <path class="cls-4" d="M240.62,441.98l-.28-.14h-.42l-.42.28-.28.28.42.14h1.4l.28-.14.14-.28-.28-.28h-1.54l-.28.14-.14.28"/>
      <path class="cls-4" d="M241.32,459.45l-1.26.56"/>
      <path class="cls-4" d="M216.86,449.25h-.56l-.14.28.28.14h.98l.42-.14.14-.28h-1.68l-.28.14"/>
      <path class="cls-4" d="M231.67,441.98l-1.4.14"/>
      <path class="cls-4" d="M228.74,461.13l-1.4-.14"/>
      <path class="cls-4" d="M234.61,465.18l-1.54.7"/>
      <path class="cls-4" d="M248.03,463.51h-.42"/>
      <path class="cls-4" d="M259.63,450.65l-1.68.14"/>
      <path class="cls-4" d="M255.86,442.96v-.28"/>
      <path class="cls-4" d="M240.2,450.79h-.7"/>
      <path class="cls-4" d="M249.01,441.84c-.05-.09-.09-.19-.14-.28"/>
    </g>
    <g class="cls-16">
      <path class="cls-4" d="M375.93,459.6l-.23-.12-.23-.11-.23-.12h-.23l-.34-.11-.35-.12h-.58l-.35-.11h-.58l.34.23.35.11.23.12h.34l.23.11h.35l.46.12h.58l.11-.23-.23-.12-.23-.11-.23-.12-.46-.11h-.35l-.23-.12h-.69l-.23.12.12.23.23.11.23.12.34.11.23.12.35.11h.23l.23.12h.46l.12-.23v-.23l-.35-.12-.23-.11-.23-.12h-.35l-.34-.11h-1.61l.11.23h.23l.35.11.34.12h.35l.34.11h1.15"/>
      <path class="cls-4" d="M367.3,462.13h-1.84"/>
      <path class="cls-4" d="M352,459.26l-.23-.23-.23-.11h-.23l-.34-.12h-1.27l-.23.12-.12.23.46.23.34.11h2.19v-.23l-.35-.23-.34-.11-.35-.12h-.46l-.46-.11h-1.27l-.11.23.34.23.35.11.35.23.46.12h.46l.46.11h1.15l.11-.23-.11-.23-.23-.11-.35-.12-.34-.23h-.46l-.46-.11h-.35l-.46-.12h-.34l-.35.12-.23.11v.23l.46.23.46.23.46.12.46.11h.46l.46.12h.58l.23-.12.23-.34-.12-.35-.23-.11-.34-.12-.58-.11-.58-.12h-.46"/>
      <path class="cls-4" d="M363.73,469.38l.23-.11-.11.23h-.23l-.35.11h-.58l-.12-.23h.23l.23-.11h.23l.35-.12h.69l.11.23"/>
      <path class="cls-4" d="M351.88,467.77h-1.27"/>
      <path class="cls-4" d="M374.44,466.62v-.35l-.23-.11h-.23v.23l.11.23.35.23.23.11-.35-.11-.46-.12h-.23l.23.12.23.11.35.12.58.23h.46"/>
      <path class="cls-4" d="M374.21,466.85l-.23-.23-.23-.35v-.23l.34-.11.46.11.23.12.23.11.23.12.23.23v.34h-.46l-.34.12h-.69l-.35-.12-.23-.11-.23-.12-.11-.23.23-.11.34-.12h1.15l.46.12.46.11.34.12.35.11.23.23-.12.23h-.58"/>
      <path class="cls-4" d="M358.22,454.14l.28-.14h.42l.42.28.28.28-.42.14h-1.4l-.28-.14-.14-.28.28-.28h1.54l.28.14.14.28"/>
      <path class="cls-4" d="M357.52,471.61l1.26.56"/>
      <path class="cls-4" d="M381.98,461.41h.56l.14.28-.28.14h-.98l-.42-.14-.14-.28h1.68l.28.14"/>
      <path class="cls-4" d="M367.17,454.14l1.4.14"/>
      <path class="cls-4" d="M370.1,473.29l1.4-.14"/>
      <path class="cls-4" d="M364.23,477.35l1.54.7"/>
      <path class="cls-4" d="M350.81,475.67h.42"/>
      <path class="cls-4" d="M339.21,462.81l1.68.14"/>
      <path class="cls-4" d="M342.98,455.12v-.28"/>
      <path class="cls-4" d="M358.64,462.95h.7"/>
      <path class="cls-4" d="M349.83,454c.05-.09.09-.19.14-.28"/>
    </g>
  </g>
</svg>