<?xml version="1.0" encoding="UTF-8"?>
<svg id="Layer_1" data-name="Layer 1" xmlns="http://www.w3.org/2000/svg" xmlns:xlink="http://www.w3.org/1999/xlink" viewBox="0 0 612 792">
  <defs>
    <style>
      .cls-1, .cls-2 {
        fill: #fffcef;
      }

      .cls-1, .cls-2, .cls-3, .cls-4, .cls-5 {
        stroke-width: 0px;
      }

      .cls-2 {
        isolation: isolate;
        opacity: .63;
      }

      .cls-6 {
        opacity: .45;
        stroke-miterlimit: 10;
      }

      .cls-6, .cls-7, .cls-8 {
        fill: #000;
        stroke: #000;
      }

      .cls-9 {
        filter: url(#Filter);
      }

      .cls-7, .cls-10, .cls-8, .cls-11, .cls-12, .cls-13, .cls-14, .cls-15 {
        stroke-linejoin: round;
      }

      .cls-7, .cls-12 {
        stroke-width: 6.67px;
      }

      .cls-10 {
        stroke-width: 1.08px;
      }

      .cls-10, .cls-11, .cls-12, .cls-14, .cls-15 {
        stroke-linecap: round;
      }

      .cls-10, .cls-13, .cls-15 {
        fill: none;
      }

      .cls-10, .cls-14 {
        stroke: #414f62;
      }

      .cls-8 {
        stroke-width: 7.9px;
      }

      .cls-11 {
        stroke-width: 5.13px;
      }

      .cls-11, .cls-12 {
        fill: #fff;
      }

      .cls-11, .cls-12, .cls-15 {
        stroke: #224767;
      }

      .cls-3 {
        fill: #eef2f5;
      }

      .cls-13 {
        stroke: #d5694f;
        stroke-width: 12.45px;
      }

      .cls-16 {
        opacity: .65;
      }

      .cls-4 {
        fill: #224767;
      }

      .cls-5 {
        fill: #d5694f;
      }

      .cls-14 {
        fill: #a4e0f9;
        stroke-width: 4.29px;
      }

      .cls-15 {
        stroke-width: 4.04px;
      }

      .cls-17 {
        filter: url(#Filter_2);
      }
    </style>
    <filter id="Filter" x="623.937" y="487.484" width="135.483" height="97.265">
      <feGaussianBlur in="SourceGraphic" result="Blur" stdDeviation="13.8566"/>
    </filter>
    <filter id="Filter_2" x="317.312" y="465.006" width="135.483" height="97.265">
      <feGaussianBlur in="SourceGraphic" result="Blur" stdDeviation="13.8566"/>
    </filter>
  </defs>
  <ellipse class="cls-6" cx="317.11" cy="522.92" rx="142.5" ry="24"/>
  <g id="Layer-2">
    <path class="cls-14" d="M167.27,428.33c-10.05-43.2,47.84-120.96,79.7-134.62,8.53-3.65,14.87,24.31,21.43,17.75,90.69-90.69,64.57,10.05,105.82,10.05,8.3,0,10.52-15.02,26.45-9.71,26.09,8.7,52.51,98.38,46.21,123.57-35.35,141.39-270.24,107.23-278.94-6.36"/>
    <g class="cls-9">
      <path class="cls-5" d="M366.4,453.98c0-.52,4.81-.95,10.74-.95s10.74.42,10.74.95-4.81.95-10.74.95-10.74-.42-10.74-.95Z"/>
      <path class="cls-13" d="M366.4,453.98c0-.52,4.81-.95,10.74-.95s10.74.42,10.74.95-4.81.95-10.74.95-10.74-.42-10.74-.95Z"/>
    </g>
    <g class="cls-17">
      <path class="cls-5" d="M209.23,442.46c0-.52,4.81-.95,10.74-.95s10.74.42,10.74.95-4.81.95-10.74.95-10.74-.42-10.74-.95Z"/>
      <path class="cls-13" d="M209.23,442.46c0-.52,4.81-.95,10.74-.95s10.74.42,10.74.95-4.81.95-10.74.95-10.74-.42-10.74-.95Z"/>
    </g>
    <path class="cls-11" d="M217.83,430.34c-50.56-101.12,142.01-73.7,55.25,13.06"/>
    <path class="cls-12" d="M321.88,453.03c-104.48-103.6,144.37-150.06,73.57-6.93"/>
    <path class="cls-7" d="M252.55,402.54c0-10.08,8.17-18.26,18.26-18.26s18.26,8.17,18.26,18.26-8.17,18.26-18.26,18.26-18.26-8.17-18.26-18.26Z"/>
    <path class="cls-8" d="M355.51,404.51c0-11.95,9.68-21.63,21.63-21.63s21.63,9.68,21.63,21.63-9.68,21.63-21.63,21.63-21.63-9.68-21.63-21.63Z"/>
    <path class="cls-1" d="M252.55,396.75c0-3.2,2.59-5.79,5.79-5.79s5.79,2.59,5.79,5.79-2.59,5.79-5.79,5.79-5.79-2.59-5.79-5.79Z"/>
    <path class="cls-1" d="M390.19,396.75c0-3.2-2.59-5.79-5.79-5.79s-5.79,2.59-5.79,5.79,2.59,5.79,5.79,5.79,5.79-2.59,5.79-5.79Z"/>
    <path class="cls-2" d="M270.81,412.58c0-3.2,2.59-5.79,5.79-5.79s5.79,2.59,5.79,5.79-2.59,5.79-5.79,5.79-5.79-2.59-5.79-5.79Z"/>
    <path class="cls-2" d="M371.94,412.59c0-3.2-2.59-5.79-5.79-5.79s-5.79,2.59-5.79,5.79,2.59,5.79,5.79,5.79,5.79-2.59,5.79-5.79Z"/>
    <path class="cls-4" d="M274.64,321.13c-2.81.46-5.61,1.08-8.25,2.18-.8.33-1.55.76-2.34,1.12-.51.23-1.03.43-1.52.69-1.22.64-2.4,1.41-3.56,2.16-2.2,1.42-4.34,2.95-6.37,4.6-1.55,1.25-3,2.62-4.5,3.92-.74.64-1.53,1.21-2.29,1.83-1.13.91-2.24,1.86-3.33,2.8-.17.22-.02.59.32.85s.73.3.9.08c1.25-1.08,2.51-2.15,3.8-3.17.55-.44,1.1-.9,1.7-1.28,1.19-.77,2.48-1.44,3.75-2.08,2.4-1.23,4.89-2.33,7.48-3.11,1.01-.3,2.03-.49,3.04-.74.39-.09.77-.25,1.17-.34.76-.17,1.55-.21,2.32-.34,1.75-.29,3.5-.53,5.27-.66,1.53.43,3.31-1.12,3.97-3.48.67-2.35-.03-4.61-1.55-5.05Z"/>
    <path class="cls-4" d="M350.62,320.25c-1.3.19-2.72,1.39-3.54,3.17-1.1,2.38-.73,4.88.82,5.59,2.25-.08,4.45.17,6.68.46.77.1,1.56.14,2.32.27.5.09.98.26,1.47.38.53.13,1.07.2,1.6.3.81.16,1.62.37,2.42.59,2.7.74,5.32,1.76,7.86,2.9,1.52.68,3.03,1.41,4.5,2.19.48.26.98.48,1.44.77.64.41,1.24.94,1.84,1.41,1.36,1.07,2.7,2.18,4.02,3.3.25.31.84.25,1.31-.14.48-.39.65-.96.4-1.27-1.13-.96-2.26-1.93-3.43-2.85-.81-.64-1.69-1.23-2.47-1.91-.39-.34-.73-.74-1.11-1.11-.75-.74-1.52-1.46-2.29-2.18-2.35-2.18-4.84-4.22-7.43-6.1-1.05-.76-2.17-1.64-3.32-2.24-.48-.25-.99-.43-1.47-.67-.72-.37-1.41-.79-2.16-1.09-2.62-1.04-5.43-1.48-8.23-1.63-.39-.18-.81-.22-1.25-.16Z"/>
    <path class="cls-4" d="M257.39,444.11c-1.77.11-3.56.2-5.32.46-.62.09-1.2.26-1.81.38-.58.12-1.15.15-1.73.29-2.87.7-5.76,1.51-8.52,2.56-1.09.41-2.17.87-3.22,1.38-.52.25-1.02.56-1.55.8-.52.23-1.06.4-1.59.62-1.1.47-2.18,1.01-3.24,1.57-.25.1-.3.5-.14.88.16.38.48.6.72.5,1.14-.6,2.27-1.18,3.46-1.67.32-.13.63-.27.96-.37,1.02-.3,2.19-.37,3.25-.43,1.74-.1,3.49-.03,5.21.24.47.07,1.27.23,1.73.34.29.07.57.16.87.19.31.03.64.02.95.08.47.1.9.26,1.38.34,1.58.25,3.18.33,4.77.43,1.54.69,3.65-.68,4.71-3.06,1.05-2.38.66-4.86-.88-5.54Z"/>
    <path class="cls-4" d="M348.95,457.78c-.89.03-1.78.14-2.66.27-1.5-.24-3.01,1.43-3.38,3.73-.37,2.3.55,4.36,2.05,4.6,1.19-.34,2.36-.49,3.59-.62.48-.05.96-.17,1.44-.19.31-.02.63.05.94.06.91.04,1.81-.04,2.72.02,2.08.14,4.14.58,6.15,1.12.93.25,1.84.53,2.76.83.36.12.73.22,1.07.37.63.28,1.22.71,1.79,1.07.85.54,1.69,1.08,2.53,1.63.27.29.85.2,1.3-.21.45-.41.59-.99.32-1.28-.99-.66-1.99-1.31-3-1.94-.44-.28-.92-.51-1.33-.83-.27-.21-.51-.47-.77-.7-.52-.47-1.03-.95-1.55-1.41-1.61-1.4-3.32-2.68-5.11-3.84-.74-.48-1.5-1.07-2.32-1.39-.36-.14-.73-.2-1.09-.34-.35-.13-.69-.31-1.04-.43-.56-.19-1.17-.32-1.76-.4-.89-.12-1.77-.15-2.66-.11Z"/>
    <path class="cls-15" d="M244.11,450.44c-.29,0,14.15,19.49,26.39,26.79,29.87,17.82,65.54,17.43,86.9-14.61"/>
    <path class="cls-3" d="M239.34,305.83c-.82-.06-1.55.17-1.97.72-5.13,4.55-10.23,9.13-15.09,13.98-1.85,1.85-3.57,3.79-5.35,5.7-1.27,1.36-2.56,2.7-3.78,4.1-2.27,2.6-4.42,5.31-6.54,8.04-4.93,6.38-9.44,13.11-13.23,20.23-2.02,3.79-3.82,7.7-5.4,11.69-.47,1.18-.87,2.38-1.33,3.56-1.02,2.62-2.01,5.23-2.87,7.91-1.3,4.07-2.33,8.21-3.19,12.4.06.37.57.6,1.14.5.57-.1.98-.48.91-.85,1-4.86,2.26-9.66,3.86-14.35.65-1.9,1.3-3.81,2.1-5.65,1.8-4.17,4.03-8.2,6.39-12.08,4.6-7.57,10.07-14.63,16.13-21.1,2.69-2.87,5.51-5.59,8.35-8.31,1.16-1.12,2.29-2.28,3.48-3.36,1.47-1.35,2.99-2.62,4.48-3.94,5.28-4.68,10.62-9.29,16.02-13.82.83-1.09.16-3.01-1.52-4.29-.84-.64-1.77-1.01-2.59-1.07Z"/>
    <path class="cls-3" d="M430.05,438.33c-2.7.08-4.86,1.56-4.81,3.32-1.65,4.21-3.52,8.33-5.65,12.32-1.92,3.59-4.07,7.06-6.33,10.44-.9,1.34-1.78,2.7-2.72,4-1.44,1.99-3.05,3.84-4.61,5.72-2.62,3.15-5.39,6.16-8.36,8.99-7.47,7.11-15.96,13.12-25.1,17.89-4.41,2.3-8.99,4.39-13.69,6.02-2.26.79-4.57,1.42-6.89,2.02-5.76,1.49-11.61,2.47-17.52,3.04-.31-.1-.68.22-.83.69-.15.47-.02.93.29,1.03,5.39-.52,10.72-1.37,15.99-2.63,3.05-.73,6.04-1.64,9.03-2.56,5.53-1.71,10.95-3.69,16.21-6.13,9.65-4.48,18.67-10.24,26.88-16.99,2.48-2.04,4.88-4.19,7.21-6.41,1.5-1.43,2.99-2.87,4.39-4.4,1.08-1.19,2.11-2.42,3.16-3.64,1.96-2.28,3.9-4.57,5.67-7,5.12-7.03,9.3-14.66,12.69-22.67-.05-1.76-2.28-3.12-4.98-3.04Z"/>
  </g>
  <g id="Layer-1">
    <g class="cls-16">
      <path class="cls-10" d="M222.19,444.36l.23-.11.23-.12.23-.11h.23l.34-.12.35-.11h.58l.34-.12h.58l-.35.23-.34.12-.23.11h-.35l-.23.12h-.35l-.46.11h-.58l-.12-.23.23-.11.23-.12.23-.11.46-.12h.35l.23-.11h.69l.23.11-.11.23-.23.12-.23.11-.35.12-.23.11-.35.12h-.23l-.23.11h-.46l-.11-.23v-.23l.34-.11.23-.12.23-.11h.35l.34-.12h1.61l-.12.23h-.23l-.34.12-.35.11h-.35l-.34.12h-1.15"/>
      <path class="cls-10" d="M230.82,446.89h1.84"/>
      <path class="cls-10" d="M246.13,444.02l.23-.23.23-.12h.23l.35-.11h1.27l.23.11.12.23-.46.23-.35.12h-2.19v-.23l.34-.23.35-.12.34-.11h.46l.46-.12h1.27l.11.23-.34.23-.35.12-.34.23-.46.11h-.46l-.46.12h-1.15l-.12-.23.12-.23.23-.12.34-.11.35-.23h.46l.46-.12h.34l.46-.11h.35l.34.11.23.12v.23l-.46.23-.46.23-.46.11-.46.12h-.46l-.46.11h-.58l-.23-.11-.23-.35.11-.34.23-.12.35-.11.58-.12.58-.11h.46"/>
      <path class="cls-10" d="M234.39,454.14l-.23-.12.11.23h.23l.35.12h.58l.11-.23h-.23l-.23-.12h-.23l-.35-.11h-.69l-.11.23"/>
      <path class="cls-10" d="M246.24,452.53h1.27"/>
      <path class="cls-10" d="M223.69,451.38v-.35l.23-.11h.23v.23l-.11.23-.35.23-.23.11.35-.11.46-.12h.23l-.23.12-.23.11-.35.12-.58.23h-.46"/>
      <path class="cls-10" d="M223.92,451.61l.23-.23.23-.35v-.23l-.35-.11-.46.11-.23.12-.23.11-.23.12-.23.23v.34h.46l.34.12h.69l.35-.12.23-.11.23-.12.12-.23-.23-.11-.35-.12h-1.15l-.46.12-.46.11-.35.12-.34.11-.23.23.11.23h.58"/>
      <path class="cls-10" d="M239.9,438.9l-.28-.14h-.42l-.42.28-.28.28.42.14h1.4l.28-.14.14-.28-.28-.28h-1.54l-.28.14-.14.28"/>
      <path class="cls-10" d="M240.6,456.37l-1.26.56"/>
      <path class="cls-10" d="M216.14,446.17h-.56l-.14.28.28.14h.98l.42-.14.14-.28h-1.68l-.28.14"/>
      <path class="cls-10" d="M230.96,438.9l-1.4.14"/>
      <path class="cls-10" d="M228.02,458.05l-1.4-.14"/>
      <path class="cls-10" d="M233.89,462.11l-1.54.7"/>
      <path class="cls-10" d="M247.31,460.43h-.42"/>
      <path class="cls-10" d="M258.92,447.57l-1.68.14"/>
      <path class="cls-10" d="M255.14,439.88v-.28"/>
      <path class="cls-10" d="M239.49,447.71h-.7"/>
      <path class="cls-10" d="M248.29,438.76c-.05-.09-.09-.19-.14-.28"/>
    </g>
    <g class="cls-16">
      <path class="cls-10" d="M375.22,456.52l-.23-.12-.23-.11-.23-.12h-.23l-.34-.11-.35-.12h-.58l-.35-.11h-.58l.34.23.35.11.23.12h.34l.23.11h.35l.46.12h.58l.11-.23-.23-.12-.23-.11-.23-.12-.46-.11h-.35l-.23-.12h-.69l-.23.12.12.23.23.11.23.12.34.11.23.12.35.11h.23l.23.12h.46l.12-.23v-.23l-.35-.12-.23-.11-.23-.12h-.35l-.34-.11h-1.61l.11.23h.23l.35.11.34.12h.35l.34.11h1.15"/>
      <path class="cls-10" d="M366.59,459.05h-1.84"/>
      <path class="cls-10" d="M351.28,456.18l-.23-.23-.23-.11h-.23l-.34-.12h-1.27l-.23.12-.12.23.46.23.34.11h2.19v-.23l-.35-.23-.34-.11-.35-.12h-.46l-.46-.11h-1.27l-.11.23.34.23.35.11.35.23.46.12h.46l.46.11h1.15l.11-.23-.11-.23-.23-.11-.35-.12-.34-.23h-.46l-.46-.11h-.35l-.46-.12h-.34l-.35.12-.23.11v.23l.46.23.46.23.46.12.46.11h.46l.46.12h.58l.23-.12.23-.34-.12-.35-.23-.11-.34-.12-.58-.11-.58-.12h-.46"/>
      <path class="cls-10" d="M363.02,466.3l.23-.11-.11.23h-.23l-.35.11h-.58l-.12-.23h.23l.23-.11h.23l.35-.12h.69l.11.23"/>
      <path class="cls-10" d="M351.17,464.69h-1.27"/>
      <path class="cls-10" d="M373.72,463.54v-.35l-.23-.11h-.23v.23l.11.23.35.23.23.11-.35-.11-.46-.12h-.23l.23.12.23.11.35.12.58.23h.46"/>
      <path class="cls-10" d="M373.49,463.77l-.23-.23-.23-.35v-.23l.34-.11.46.11.23.12.23.11.23.12.23.23v.34h-.46l-.34.12h-.69l-.35-.12-.23-.11-.23-.12-.11-.23.23-.11.34-.12h1.15l.46.12.46.11.34.12.35.11.23.23-.12.23h-.58"/>
      <path class="cls-10" d="M357.5,451.06l.28-.14h.42l.42.28.28.28-.42.14h-1.4l-.28-.14-.14-.28.28-.28h1.54l.28.14.14.28"/>
      <path class="cls-10" d="M356.8,468.54l1.26.56"/>
      <path class="cls-10" d="M381.27,458.33h.56l.14.28-.28.14h-.98l-.42-.14-.14-.28h1.68l.28.14"/>
      <path class="cls-10" d="M366.45,451.06l1.4.14"/>
      <path class="cls-10" d="M369.39,470.21l1.4-.14"/>
      <path class="cls-10" d="M363.51,474.27l1.54.7"/>
      <path class="cls-10" d="M350.09,472.59h.42"/>
      <path class="cls-10" d="M338.49,459.73l1.68.14"/>
      <path class="cls-10" d="M342.27,452.04v-.28"/>
      <path class="cls-10" d="M357.92,459.87h.7"/>
      <path class="cls-10" d="M349.12,450.92c.05-.09.09-.19.14-.28"/>
    </g>
  </g>
</svg>