<?xml version="1.0" encoding="utf-8"?>
<!-- Generator: Adobe Illustrator 28.3.0, SVG Export Plug-In . SVG Version: 6.00 Build 0)  -->
<svg version="1.1" xmlns="http://www.w3.org/2000/svg" xmlns:xlink="http://www.w3.org/1999/xlink" x="0px" y="0px"
	 viewBox="0 0 1920 1080" style="enable-background:new 0 0 1920 1080;" xml:space="preserve">
<style type="text/css">
	.st0{clip-path:url(#SVGID_00000057865427278931135100000001414636673655986585_);fill:#C4FEFE;}
	
		.st1{clip-path:url(#SVGID_00000057865427278931135100000001414636673655986585_);fill:url(#SVGID_00000179608513422332344380000003662454745167614640_);}
	.st2{clip-path:url(#SVGID_00000057865427278931135100000001414636673655986585_);}
	.st3{fill:#24756C;stroke:#3A6B7B;stroke-width:5;stroke-miterlimit:10;}
	.st4{fill:#328F6A;stroke:#3A6B7B;stroke-width:5;stroke-miterlimit:10;}
	.st5{fill:#3DA67C;stroke:#3A6B7B;stroke-width:5;stroke-miterlimit:10;}
	.st6{fill:#CBA365;}
	.st7{font-family:'Crayonize-Regular';}
	.st8{font-size:161.4815px;}
	.st9{fill:#B9FF82;}
	.st10{display:none;clip-path:url(#SVGID_00000057865427278931135100000001414636673655986585_);}
	.st11{display:inline;}
	.st12{fill:#FFFFFF;}
	.st13{font-size:183.6852px;}
	.st14{font-size:142.0532px;}
</style>
<g id="Layer_1">
	<g id="Layer_2">
	</g>
</g>
<g id="Layer_3">
	<g>
		<defs>
			<rect id="SVGID_1_" y="-10" width="1920" height="1090"/>
		</defs>
		<clipPath id="SVGID_00000180360476770986352270000001108555481283470737_">
			<use xlink:href="#SVGID_1_"  style="overflow:visible;"/>
		</clipPath>
		
			<rect y="-10" style="clip-path:url(#SVGID_00000180360476770986352270000001108555481283470737_);fill:#C4FEFE;" width="1920" height="1090"/>
		
			<radialGradient id="SVGID_00000111905374156664210200000000635067379154492861_" cx="950" cy="856.8892" r="845.6257" gradientTransform="matrix(1 0 0 0.2829 0 618.0526)" gradientUnits="userSpaceOnUse">
			<stop  offset="0" style="stop-color:#49AE7E"/>
			<stop  offset="1" style="stop-color:#247067"/>
		</radialGradient>
		
			<rect x="-10" y="629.1" style="clip-path:url(#SVGID_00000180360476770986352270000001108555481283470737_);fill:url(#SVGID_00000111905374156664210200000000635067379154492861_);" width="1920" height="462.7"/>
		<g style="clip-path:url(#SVGID_00000180360476770986352270000001108555481283470737_);">
			<g>
				<path class="st3" d="M278.9,623.2l-79-147.3c0.3-0.3,0.6-0.7,0.9-1h14.5c20.1,0,32.7-21.8,22.6-39.3l-52.9-91.4
					c18.8-0.9,30.7-20.9,22.1-37.9l-71.3-141.1c-9.7-19.1-37-19.1-46.7,0L17.7,306.4c-8.6,17,3.3,37.1,22.1,37.9l-52.9,91.4
					c-10.1,17.4,2.5,39.3,22.6,39.3h15.9l0,0l-79.6,148.3c-9.3,17.4,3.3,38.5,23,38.5h286.9C275.6,661.8,288.2,640.7,278.9,623.2z"
					/>
			</g>
		</g>
		<g style="clip-path:url(#SVGID_00000180360476770986352270000001108555481283470737_);">
			<g>
				<path class="st3" d="M436.9,655.5l-79-147.3c0.3-0.3,0.6-0.7,0.9-1h14.5c20.1,0,32.7-21.8,22.6-39.3l-52.9-91.4
					c18.8-0.9,30.7-20.9,22.1-37.9l-71.3-141.1c-9.7-19.1-37-19.1-46.7,0l-71.3,141.1c-8.6,17,3.3,37.1,22.1,37.9L144.8,468
					c-10.1,17.4,2.5,39.3,22.6,39.3h15.9l0,0l-79.6,148.3c-9.3,17.4,3.3,38.5,23,38.5h286.9C433.6,694.1,446.2,673,436.9,655.5z"/>
			</g>
		</g>
		<g style="clip-path:url(#SVGID_00000180360476770986352270000001108555481283470737_);">
			<g>
				<path class="st3" d="M666.9,623.2l-79-147.3c0.3-0.3,0.6-0.7,0.9-1h14.5c20.1,0,32.7-21.8,22.6-39.3l-52.9-91.4
					c18.8-0.9,30.7-20.9,22.1-37.9l-71.3-141.1c-9.7-19.1-37-19.1-46.7,0l-71.3,141.1c-8.6,17,3.3,37.1,22.1,37.9l-52.9,91.4
					c-10.1,17.4,2.5,39.3,22.6,39.3h15.9l0,0l-79.6,148.3c-9.3,17.4,3.3,38.5,23,38.5h286.9C663.6,661.8,676.2,640.7,666.9,623.2z"
					/>
			</g>
		</g>
		<g style="clip-path:url(#SVGID_00000180360476770986352270000001108555481283470737_);">
			<g>
				<path class="st3" d="M867.4,653l-79-147.3c0.3-0.3,0.6-0.7,0.9-1h14.5c20.1,0,32.7-21.8,22.6-39.3l-52.9-91.4
					c18.8-0.9,30.7-20.9,22.1-37.9l-71.3-141.1c-9.7-19.1-37-19.1-46.7,0l-71.3,141.1c-8.6,17,3.3,37.1,22.1,37.9l-52.9,91.4
					c-10.1,17.4,2.5,39.3,22.6,39.3h15.9L534.4,653c-9.3,17.4,3.3,38.5,23,38.5h286.9C864.1,691.5,876.7,670.4,867.4,653z"/>
			</g>
		</g>
		<g style="clip-path:url(#SVGID_00000180360476770986352270000001108555481283470737_);">
			<g>
				<path class="st3" d="M1431.9,629.8l-79-147.3c0.3-0.3,0.6-0.7,0.9-1h14.5c20.1,0,32.7-21.8,22.6-39.3l-52.9-91.4
					c18.8-0.9,30.7-20.9,22.1-37.9l-71.3-141.1c-9.7-19.1-37-19.1-46.7,0L1170.7,313c-8.6,17,3.3,37.1,22.1,37.9l-52.9,91.4
					c-10.1,17.4,2.5,39.3,22.6,39.3h15.9l-79.6,148.3c-9.3,17.4,3.3,38.5,23,38.5h286.9C1428.6,668.3,1441.3,647.2,1431.9,629.8z"/>
			</g>
		</g>
		<g style="clip-path:url(#SVGID_00000180360476770986352270000001108555481283470737_);">
			<g>
				<path class="st3" d="M1665.3,655.5l-79-147.3c0.3-0.3,0.6-0.7,0.9-1h14.5c20.1,0,32.7-21.8,22.6-39.3l-52.9-91.4
					c18.8-0.9,30.7-20.9,22.1-37.9l-71.3-141.1c-9.7-19.1-37-19.1-46.7,0l-71.3,141.1c-8.6,17,3.3,37.1,22.1,37.9l-52.9,91.4
					c-10.1,17.4,2.5,39.3,22.6,39.3h15.9l0,0l-79.6,148.3c-9.3,17.4,3.3,38.5,23,38.5h286.9C1662.1,694.1,1674.7,673,1665.3,655.5z"
					/>
			</g>
		</g>
		<g style="clip-path:url(#SVGID_00000180360476770986352270000001108555481283470737_);">
			<g>
				<path class="st3" d="M1837.3,653l-79-147.3c0.3-0.3,0.6-0.7,0.9-1h14.5c20.1,0,32.7-21.8,22.6-39.3l-52.9-91.4
					c18.8-0.9,30.7-20.9,22.1-37.9l-71.3-141.1c-9.7-19.1-37-19.1-46.7,0l-71.3,141.1c-8.6,17,3.3,37.1,22.1,37.9l-52.9,91.4
					c-10.1,17.4,2.5,39.3,22.6,39.3h15.9L1504.3,653c-9.3,17.4,3.3,38.5,23,38.5h286.9C1834,691.5,1846.6,670.4,1837.3,653z"/>
			</g>
		</g>
		<g style="clip-path:url(#SVGID_00000180360476770986352270000001108555481283470737_);">
			<g>
				<path class="st3" d="M2021.3,653l-79-147.3c0.3-0.3,0.6-0.7,0.9-1h14.5c20.1,0,32.7-21.8,22.6-39.3l-52.9-91.4
					c18.8-0.9,30.7-20.9,22.1-37.9l-71.3-141.1c-9.7-19.1-37-19.1-46.7,0l-71.3,141.1c-8.6,17,3.3,37.1,22.1,37.9l-52.9,91.4
					c-10.1,17.4,2.5,39.3,22.6,39.3h15.9L1688.3,653c-9.3,17.4,3.3,38.5,23,38.5h286.9C2018,691.5,2030.6,670.4,2021.3,653z"/>
			</g>
		</g>
		<g style="clip-path:url(#SVGID_00000180360476770986352270000001108555481283470737_);">
			<g>
				<path class="st3" d="M1947.3,655.5l-79-147.3c0.3-0.3,0.6-0.7,0.9-1h14.5c20.1,0,32.7-21.8,22.6-39.3l-52.9-91.4
					c18.8-0.9,30.7-20.9,22.1-37.9l-71.3-141.1c-9.7-19.1-37-19.1-46.7,0l-71.3,141.1c-8.6,17,3.3,37.1,22.1,37.9l-52.9,91.4
					c-10.1,17.4,2.5,39.3,22.6,39.3h15.9l-79.6,148.3c-9.3,17.4,3.3,38.5,23,38.5h286.9C1944,694.1,1956.6,673,1947.3,655.5z"/>
			</g>
		</g>
		<g style="clip-path:url(#SVGID_00000180360476770986352270000001108555481283470737_);">
			<g>
				<path class="st3" d="M1571.7,629.8l-79-147.3c0.3-0.3,0.6-0.7,0.9-1h14.5c20.1,0,32.7-21.8,22.6-39.3l-52.9-91.4
					c18.8-0.9,30.7-20.9,22.1-37.9l-71.3-141.1c-9.7-19.1-37-19.1-46.7,0L1310.6,313c-8.6,17,3.3,37.1,22.1,37.9l-52.9,91.4
					c-10.1,17.4,2.5,39.3,22.6,39.3h15.9l-79.6,148.3c-9.3,17.4,3.3,38.5,23,38.5h286.9C1568.5,668.3,1581.1,647.2,1571.7,629.8z"/>
			</g>
		</g>
		<g style="clip-path:url(#SVGID_00000180360476770986352270000001108555481283470737_);">
			<g>
				<g>
					<path class="st4" d="M508.2,900.1L403.6,686.8h31.9c19.7,0,32.3-21,23.1-38.4l-72.6-137h9.8c19.1,0,31.8-19.8,23.7-37.1
						l-99-214c-9.4-20.2-38.1-20.2-47.5,0l-99,214c-8,17.3,4.6,37.1,23.7,37.1h9.8l-72.6,137c-9.2,17.4,3.4,38.4,23.1,38.4h31.9
						L85.1,900.1c-8.5,17.4,4.1,37.7,23.5,37.7h376.2C504.1,937.8,516.8,917.5,508.2,900.1z"/>
				</g>
			</g>
			<path class="st4" d="M189.8,686.8c46,22.7,50.9,26.7,86.5,5.9c1.9-1.1,3.7-2.3,5.9-2.3c0,0,23.7,25.7,57.3,3.4
				c11.9-7.9,37.8,29.1,65.8-7"/>
			<path class="st4" d="M209.3,511.4c37.3,22.7,41.3,26.7,70.2,5.9c1.5-1.1,3-2.3,4.8-2.3c0,0,19.2,25.7,46.5,3.4
				c9.7-7.9,30.6,29.1,53.4-7"/>
		</g>
		<g style="clip-path:url(#SVGID_00000180360476770986352270000001108555481283470737_);">
			<g>
				<g>
					<path class="st4" d="M267.8,816L163.1,602.7H195c19.7,0,32.3-21,23.1-38.4l-72.6-137h9.8c19.1,0,31.8-19.8,23.7-37.1l-99-214
						c-9.4-20.2-38.1-20.2-47.5,0l-99,214c-8,17.3,4.6,37.1,23.7,37.1h9.8l-72.6,137c-9.2,17.4,3.4,38.4,23.1,38.4h31.9L-155.3,816
						c-8.5,17.4,4.1,37.7,23.5,37.7h376.2C263.7,853.7,276.3,833.4,267.8,816z"/>
				</g>
			</g>
			<path class="st4" d="M-50.6,602.7c46,22.7,50.9,26.7,86.5,5.9c1.9-1.1,3.7-2.3,5.9-2.3c0,0,23.7,25.7,57.3,3.4
				c11.9-7.9,37.8,29.1,65.8-7"/>
			<path class="st4" d="M-31.2,427.3C6.1,450,10.1,454,39,433.2c1.5-1.1,3-2.3,4.8-2.3c0,0,19.2,25.7,46.5,3.4
				c9.7-7.9,30.6,29.1,53.4-7"/>
		</g>
		<g style="clip-path:url(#SVGID_00000180360476770986352270000001108555481283470737_);">
			<g>
				<g>
					<path class="st4" d="M434.6,900.1L330,686.8h31.9c19.7,0,32.3-21,23.1-38.4l-72.6-137h9.8c19.1,0,31.8-19.8,23.7-37.1l-99-214
						c-9.4-20.2-38.1-20.2-47.5,0l-99,214c-8,17.3,4.6,37.1,23.7,37.1h9.8l-72.6,137c-9.2,17.4,3.4,38.4,23.1,38.4h31.9L11.5,900.1
						C3,917.5,15.6,937.8,35,937.8h376.2C430.5,937.8,443.2,917.5,434.6,900.1z"/>
				</g>
			</g>
			<path class="st4" d="M116.2,686.8c46,22.7,50.9,26.7,86.5,5.9c1.9-1.1,3.7-2.3,5.9-2.3c0,0,23.7,25.7,57.3,3.4
				c11.9-7.9,37.8,29.1,65.8-7"/>
			<path class="st4" d="M135.6,511.4c37.3,22.7,41.3,26.7,70.2,5.9c1.5-1.1,3-2.3,4.8-2.3c0,0,19.2,25.7,46.5,3.4
				c9.7-7.9,30.6,29.1,53.4-7"/>
		</g>
		<g style="clip-path:url(#SVGID_00000180360476770986352270000001108555481283470737_);">
			<g>
				<g>
					<path class="st5" d="M495.9,1064.1L391.2,850.8h31.9c19.7,0,32.3-21,23.1-38.4l-72.6-137h9.8c19.1,0,31.8-19.8,23.7-37.1
						l-99-214c-9.4-20.2-38.1-20.2-47.5,0l-99,214c-8,17.3,4.6,37.1,23.7,37.1h9.8l-72.6,137c-9.2,17.4,3.4,38.4,23.1,38.4h31.9
						L72.8,1064.1c-8.5,17.4,4.1,37.7,23.5,37.7h376.2C491.7,1101.7,504.4,1081.4,495.9,1064.1z"/>
				</g>
			</g>
			<path class="st5" d="M177.4,850.8c46,22.7,50.9,26.7,86.5,5.9c1.9-1.1,3.7-2.3,5.9-2.3c0,0,23.7,25.7,57.3,3.4
				c11.9-7.9,37.8,29.1,65.8-7"/>
			<path class="st5" d="M196.9,675.4c37.3,22.7,41.3,26.7,70.2,5.9c1.5-1.1,3-2.3,4.8-2.3c0,0,19.2,25.7,46.5,3.4
				c9.7-7.9,30.6,29.1,53.4-7"/>
		</g>
		<g style="clip-path:url(#SVGID_00000180360476770986352270000001108555481283470737_);">
			<g>
				<g>
					<path class="st5" d="M280.6,1246.5l-104.7-213.3h31.9c19.7,0,32.3-21,23.1-38.4l-72.6-137h9.8c19.1,0,31.8-19.8,23.7-37.1
						l-99-214c-9.4-20.2-38.1-20.2-47.5,0l-99,214c-8,17.3,4.6,37.1,23.7,37.1h9.8l-72.6,137c-9.2,17.4,3.4,38.4,23.1,38.4h31.9
						l-104.7,213.3c-8.5,17.4,4.1,37.7,23.5,37.7h376.2C276.5,1284.2,289.1,1263.9,280.6,1246.5z"/>
				</g>
			</g>
			<path class="st5" d="M-37.9,1033.3c46,22.7,50.9,26.7,86.5,5.9c1.9-1.1,3.7-2.3,5.9-2.3c0,0,23.7,25.7,57.3,3.4
				c11.9-7.9,37.8,29.1,65.8-7"/>
			<path class="st5" d="M-18.4,857.8c37.3,22.7,41.3,26.7,70.2,5.9c1.5-1.1,3-2.3,4.8-2.3c0,0,19.2,25.7,46.5,3.4
				c9.7-7.9,30.6,29.1,53.4-7"/>
		</g>
		<g style="clip-path:url(#SVGID_00000180360476770986352270000001108555481283470737_);">
			<g>
				<g>
					<path class="st5" d="M669.8,1265.5l-104.7-213.3H597c19.7,0,32.3-21,23.1-38.4l-72.6-137h9.8c19.1,0,31.8-19.8,23.7-37.1
						l-99-214c-9.4-20.2-38.1-20.2-47.5,0l-99,214c-8,17.3,4.6,37.1,23.7,37.1h9.8l-72.6,137c-9.2,17.4,3.4,38.4,23.1,38.4h31.9
						l-104.7,213.3c-8.5,17.4,4.1,37.7,23.5,37.7h376.2C665.7,1303.2,678.3,1282.9,669.8,1265.5z"/>
				</g>
			</g>
			<path class="st5" d="M351.3,1052.2c46,22.7,50.9,26.7,86.5,5.9c1.9-1.1,3.7-2.3,5.9-2.3c0,0,23.7,25.7,57.3,3.4
				c11.9-7.9,37.8,29.1,65.8-7"/>
			<path class="st5" d="M370.8,876.8c37.3,22.7,41.3,26.7,70.2,5.9c1.5-1.1,3-2.3,4.8-2.3c0,0,19.2,25.7,46.5,3.4
				c9.7-7.9,30.6,29.1,53.4-7"/>
		</g>
		<g style="clip-path:url(#SVGID_00000180360476770986352270000001108555481283470737_);">
			<g>
				<g>
					<path class="st4" d="M1710.4,841.3L1605.7,628h31.9c19.7,0,32.3-21,23.1-38.4l-72.6-137h9.8c19.1,0,31.8-19.8,23.7-37.1
						l-99-214c-9.4-20.2-38.1-20.2-47.5,0l-99,214c-8,17.3,4.6,37.1,23.7,37.1h9.8l-72.6,137c-9.2,17.4,3.4,38.4,23.1,38.4h31.9
						l-104.7,213.3c-8.5,17.4,4.1,37.7,23.5,37.7h376.2C1706.3,879,1718.9,858.7,1710.4,841.3z"/>
				</g>
			</g>
			<path class="st4" d="M1605.7,628c-46,22.7-50.9,26.7-86.5,5.9c-1.9-1.1-3.7-2.3-5.9-2.3c0,0-23.7,25.7-57.3,3.4
				c-11.9-7.9-37.8,29.1-65.8-7"/>
			<path class="st4" d="M1586.3,452.6c-37.3,22.7-41.3,26.7-70.2,5.9c-1.5-1.1-3-2.3-4.8-2.3c0,0-19.2,25.7-46.5,3.4
				c-9.7-7.9-30.6,29.1-53.4-7"/>
		</g>
		<g style="clip-path:url(#SVGID_00000180360476770986352270000001108555481283470737_);">
			<g>
				<g>
					<path class="st4" d="M2053.8,715.1l-104.7-213.3h31.9c19.7,0,32.3-21,23.1-38.4l-72.6-137h9.8c19.1,0,31.8-19.8,23.7-37.1
						l-99-214c-9.4-20.2-38.1-20.2-47.5,0l-99,214c-8,17.3,4.6,37.1,23.7,37.1h9.8l-72.6,137c-9.2,17.4,3.4,38.4,23.1,38.4h31.9
						l-104.7,213.3c-8.5,17.4,4.1,37.7,23.5,37.7h376.2C2049.7,752.8,2062.3,732.5,2053.8,715.1z"/>
				</g>
			</g>
			<path class="st4" d="M1949.1,501.8c-46,22.7-50.9,26.7-86.5,5.9c-1.9-1.1-3.7-2.3-5.9-2.3c0,0-23.7,25.7-57.3,3.4
				c-11.9-7.9-37.8,29.1-65.8-7"/>
			<path class="st4" d="M1929.7,326.4c-37.3,22.7-41.3,26.7-70.2,5.9c-1.5-1.1-3-2.3-4.8-2.3c0,0-19.2,25.7-46.5,3.4
				c-9.7-7.9-30.6,29.1-53.4-7"/>
		</g>
		<g style="clip-path:url(#SVGID_00000180360476770986352270000001108555481283470737_);">
			<g>
				<g>
					<path class="st4" d="M1887,799.3L1782.3,586h31.9c19.7,0,32.3-21,23.1-38.4l-72.6-137h9.8c19.1,0,31.8-19.8,23.7-37.1l-99-214
						c-9.4-20.2-38.1-20.2-47.5,0l-99,214c-8,17.3,4.6,37.1,23.7,37.1h9.8l-72.6,137c-9.2,17.4,3.4,38.4,23.1,38.4h31.9
						l-104.7,213.3c-8.5,17.4,4.1,37.7,23.5,37.7h376.2C1882.8,836.9,1895.5,816.6,1887,799.3z"/>
				</g>
			</g>
			<path class="st4" d="M1782.3,586c-46,22.7-50.9,26.7-86.5,5.9c-1.9-1.1-3.7-2.3-5.9-2.3c0,0-23.7,25.7-57.3,3.4
				c-11.9-7.9-37.8,29.1-65.8-7"/>
			<path class="st4" d="M1762.8,410.6c-37.3,22.7-41.3,26.7-70.2,5.9c-1.5-1.1-3-2.3-4.8-2.3c0,0-19.2,25.7-46.5,3.4
				c-9.7-7.9-30.6,29.1-53.4-7"/>
		</g>
		<g style="clip-path:url(#SVGID_00000180360476770986352270000001108555481283470737_);">
			<g>
				<g>
					<path class="st4" d="M1823.3,979.6l-104.7-213.3h31.9c19.7,0,32.3-21,23.1-38.4l-72.6-137h9.8c19.1,0,31.8-19.8,23.7-37.1
						l-99-214c-9.4-20.2-38.1-20.2-47.5,0l-99,214c-8,17.3,4.6,37.1,23.7,37.1h9.8l-72.6,137c-9.2,17.4,3.4,38.4,23.1,38.4h31.9
						l-104.7,213.3c-8.5,17.4,4.1,37.7,23.5,37.7h376.2C1819.2,1017.3,1831.8,997,1823.3,979.6z"/>
				</g>
			</g>
			<path class="st4" d="M1718.6,766.3c-46,22.7-50.9,26.7-86.5,5.9c-1.9-1.1-3.7-2.3-5.9-2.3c0,0-23.7,25.7-57.3,3.4
				c-11.9-7.9-37.8,29.1-65.8-7"/>
			<path class="st4" d="M1699.2,590.9c-37.3,22.7-41.3,26.7-70.2,5.9c-1.5-1.1-3-2.3-4.8-2.3c0,0-19.2,25.7-46.5,3.4
				c-9.7-7.9-30.6,29.1-53.4-7"/>
		</g>
		<g style="clip-path:url(#SVGID_00000180360476770986352270000001108555481283470737_);">
			<g>
				<g>
					<path class="st4" d="M2012.5,979.6l-104.7-213.3h31.9c19.7,0,32.3-21,23.1-38.4l-72.6-137h9.8c19.1,0,31.8-19.8,23.7-37.1
						l-99-214c-9.4-20.2-38.1-20.2-47.5,0l-99,214c-8,17.3,4.6,37.1,23.7,37.1h9.8l-72.6,137c-9.2,17.4,3.4,38.4,23.1,38.4h31.9
						l-104.7,213.3c-8.5,17.4,4.1,37.7,23.5,37.7h376.2C2008.4,1017.3,2021.1,997,2012.5,979.6z"/>
				</g>
			</g>
			<path class="st4" d="M1907.9,766.3c-46,22.7-50.9,26.7-86.5,5.9c-1.9-1.1-3.7-2.3-5.9-2.3c0,0-23.7,25.7-57.3,3.4
				c-11.9-7.9-37.8,29.1-65.8-7"/>
			<path class="st4" d="M1888.4,590.9c-37.3,22.7-41.3,26.7-70.2,5.9c-1.5-1.1-3-2.3-4.8-2.3c0,0-19.2,25.7-46.5,3.4
				c-9.7-7.9-30.6,29.1-53.4-7"/>
		</g>
		<g style="clip-path:url(#SVGID_00000180360476770986352270000001108555481283470737_);">
			<g>
				<path class="st3" d="M1168.9,655.5l-79-147.3c0.3-0.3,0.6-0.7,0.9-1h14.5c20.1,0,32.7-21.8,22.6-39.3l-52.9-91.4
					c18.8-0.9,30.7-20.9,22.1-37.9l-71.3-141.1c-9.7-19.1-37-19.1-46.7,0l-71.3,141.1c-8.6,17,3.3,37.1,22.1,37.9L876.8,468
					c-10.1,17.4,2.5,39.3,22.6,39.3h15.9l0,0l-79.6,148.3c-9.3,17.4,3.3,38.5,23,38.5h286.9C1165.6,694.1,1178.2,673,1168.9,655.5z"
					/>
			</g>
		</g>
		<g style="clip-path:url(#SVGID_00000180360476770986352270000001108555481283470737_);">
			<g>
				<g>
					<path class="st5" d="M1738.7,1351.5l-134.8-210.7h48.3c21.1,0,33.5-23.7,21.5-41l-92.9-134.4h19.8c20.4,0,32.9-22.2,22.4-39.7
						l-136.1-225.7c-10.2-16.9-34.6-16.9-44.8,0l-136.1,225.7c-10.5,17.4,2,39.7,22.4,39.7h19.8l-92.9,134.4
						c-12,17.3,0.4,41,21.5,41h48.3l-134.8,210.7c-11.1,17.4,1.4,40.2,22,40.2h504.1C1737.4,1391.8,1749.9,1368.9,1738.7,1351.5z"/>
				</g>
			</g>
			<path class="st5" d="M1325.4,1140.8c59.9,22.7,66.4,26.7,112.8,5.9c2.4-1.1,4.8-2.3,7.7-2.3c0,0,30.9,25.7,74.6,3.4
				c15.5-7.9,49.2,29.1,85.7-7"/>
			<path class="st5" d="M1350.7,965.4c48.7,22.7,53.9,26.7,91.5,5.9c2-1.1,3.9-2.3,6.3-2.3c0,0,25.1,25.7,60.6,3.4
				c12.6-7.9,39.9,29.1,69.6-7"/>
		</g>
		<g style="clip-path:url(#SVGID_00000180360476770986352270000001108555481283470737_);">
			<g>
				<g>
					<path class="st5" d="M2032.4,1293l-133.3-210.8h47.5c21,0,33.4-23.5,21.6-40.9l-91.8-134.5h19.3c20.3,0,32.9-22.1,22.5-39.5
						L1783.9,642c-10.1-17-34.8-17-44.9,0l-134.2,225.2c-10.4,17.4,2.2,39.5,22.5,39.5h19.3l-91.8,134.5
						c-11.9,17.4,0.6,40.9,21.6,40.9h47.5L1490.6,1293c-11,17.4,1.5,40.1,22.1,40.1h497.6C2030.8,1333.1,2043.4,1310.4,2032.4,1293z
						"/>
				</g>
			</g>
			<path class="st5" d="M1623.8,1082.1c59.2,22.7,65.6,26.7,111.4,5.9c2.4-1.1,4.7-2.3,7.6-2.3c0,0,30.5,25.7,73.7,3.4
				c15.3-7.9,48.6,29.1,84.7-7"/>
			<path class="st5" d="M1648.8,906.7c48.1,22.7,53.2,26.7,90.4,5.9c2-1.1,3.8-2.3,6.2-2.3c0,0,24.8,25.7,59.8,3.4
				c12.4-7.9,39.5,29.1,68.7-7"/>
		</g>
		<g style="clip-path:url(#SVGID_00000180360476770986352270000001108555481283470737_);">
			<text transform="matrix(0.9908 0 0 1 434.2056 752.458)" class="st6 st7 st8">WHERE ARE MY FRIENDS </text>
		</g>
		<g style="clip-path:url(#SVGID_00000180360476770986352270000001108555481283470737_);">
			<text transform="matrix(0.9908 0 0 1 438.6113 745.6641)" class="st9 st7 st8">WHERE ARE MY FRIENDS </text>
		</g>
		<g style="display:none;clip-path:url(#SVGID_00000180360476770986352270000001108555481283470737_);">
			<defs>
				<rect id="SVGID_00000042708549014128607870000016859213549877629853_" x="1.7" y="1.8" width="1920" height="1090"/>
			</defs>
			<clipPath id="SVGID_00000152963958562379523090000003532893053495963291_" class="st11">
				<use xlink:href="#SVGID_00000042708549014128607870000016859213549877629853_"  style="overflow:visible;"/>
			</clipPath>
			
				<g transform="matrix(1 0 0 1 0 0)" style="display:inline;clip-path:url(#SVGID_00000152963958562379523090000003532893053495963291_);">
				
					<image style="overflow:visible;" width="2042" height="162" xlink:href="54981DED3949EC49.png"  transform="matrix(0.9403 0 0 0.949 1.7193 -54.8529)">
				</image>
			</g>
		</g>
		<g style="clip-path:url(#SVGID_00000180360476770986352270000001108555481283470737_);">
			<text transform="matrix(0.9908 0 0 1 1445.5166 495.7769)" class="st12 st7 st13">?</text>
		</g>
		<g style="clip-path:url(#SVGID_00000180360476770986352270000001108555481283470737_);">
			<text transform="matrix(0.9908 0 0 1 652.5156 997.4873)" class="st12 st7 st13">?</text>
		</g>
		<g style="clip-path:url(#SVGID_00000180360476770986352270000001108555481283470737_);">
			<text transform="matrix(0.9908 0 0 1 458.2153 351.4619)" class="st12 st7 st13">?</text>
		</g>
		<g style="clip-path:url(#SVGID_00000180360476770986352270000001108555481283470737_);">
			<text transform="matrix(0.9908 0 0 1 226.4849 765.1133)" class="st12 st7 st13">?</text>
		</g>
		<g style="clip-path:url(#SVGID_00000180360476770986352270000001108555481283470737_);">
			<text transform="matrix(0.9908 0 0 1 1484.2031 997.4873)" class="st12 st7 st13">?</text>
		</g>
		<g style="clip-path:url(#SVGID_00000180360476770986352270000001108555481283470737_);">
			<text transform="matrix(0.9908 0 0 1 1806.0381 311.0356)" class="st12 st7 st13">?</text>
		</g>
		<g style="clip-path:url(#SVGID_00000180360476770986352270000001108555481283470737_);">
			<text transform="matrix(0.9908 0 0 1 700.8784 578.1846)" class="st12 st7 st13">?</text>
		</g>
		<g style="clip-path:url(#SVGID_00000180360476770986352270000001108555481283470737_);">
			<text transform="matrix(0.9908 0 0 1 1476.5195 753.7539)" class="st12 st7 st13">?</text>
		</g>
		<g style="clip-path:url(#SVGID_00000180360476770986352270000001108555481283470737_);">
			<text transform="matrix(0.9908 0 0 1 1778.6855 1058.6904)" class="st12 st7 st13">?</text>
		</g>
		<g style="clip-path:url(#SVGID_00000180360476770986352270000001108555481283470737_);">
			<text transform="matrix(0.9908 0 0 1 46.7183 899.1543)" class="st12 st7 st13">?</text>
		</g>
		<g style="clip-path:url(#SVGID_00000180360476770986352270000001108555481283470737_);">
			<text transform="matrix(0.9908 0 0 1 1048.8457 903.5781)" class="st12 st7 st14">?</text>
		</g>
	</g>
</g>
</svg>
